<?xml version="1.0" encoding="UTF-8"?>
<svg version="1.1" xmlns="http://www.w3.org/2000/svg" width="1024" height="1024">
<path d="M0 0 C2.26638287 1.12756639 4.42108177 2.36523722 6.58984375 3.67041016 C7.37439941 4.12456299 8.15895508 4.57871582 8.96728516 5.04663086 C11.29195655 6.40067247 13.59973444 7.77923972 15.90234375 9.17041016 C16.52931152 9.54858887 17.1562793 9.92676758 17.80224609 10.31640625 C20.51273094 11.96007109 23.20828517 13.62650693 25.8984375 15.30322266 C32.93212402 19.67526707 40.02100961 23.78484847 47.46484375 27.42041016 C53.9202545 30.59508642 60.10464757 34.13115628 66.30859375 37.76879883 C73.39211772 41.90904001 80.5722007 45.85316585 87.78588867 49.76123047 C92.73517608 52.44279867 97.66781538 55.14852042 102.57519531 57.90600586 C110.3727508 62.28612517 118.26332652 66.45140439 126.21484375 70.54541016 C135.14340789 75.14246905 143.89762046 79.96340024 152.58349609 85.00195312 C158.21344899 88.25162284 163.90918636 91.25256288 169.74975586 94.10229492 C178.33686082 98.31696323 186.67693225 102.99522633 195.05566406 107.60595703 C199.66489275 110.13905629 204.28409778 112.65380195 208.90234375 115.17041016 C210.73177678 116.16909718 212.56120386 117.16779511 214.390625 118.16650391 C218.09273908 120.18625739 221.79881286 122.19848728 225.5078125 124.20556641 C234.37902358 129.01338518 243.19626218 133.88119562 251.90234375 138.98291016 C258.33351865 142.75096994 264.81569312 146.19753505 271.515625 149.46728516 C275.64268064 151.54271337 279.63889732 153.81812543 283.64355469 156.11645508 C288.7107947 158.99654792 293.8428659 161.74105671 299 164.45556641 C299.72135132 164.83579956 300.44270264 165.21603271 301.18591309 165.60778809 C304.86924122 167.54815092 308.55609073 169.48141982 312.24755859 171.40625 C313.62088133 172.12820287 314.99409567 172.85036198 316.3671875 173.57275391 C317.33326683 174.07223289 317.33326683 174.07223289 318.31886292 174.58180237 C322.78893011 176.94358288 322.78893011 176.94358288 323.90234375 179.17041016 C323.99397457 180.55155022 324.02428218 181.93702221 324.02259827 183.32119751 C324.02397293 184.19060471 324.0253476 185.0600119 324.02676392 185.95576477 C324.02316864 186.91170029 324.01957336 187.8676358 324.01586914 188.85253906 C324.01601517 189.85744888 324.01616119 190.8623587 324.01631165 191.89772034 C324.01561304 195.23082614 324.00782308 198.56387657 324 201.89697266 C323.99813563 204.20339935 323.99671182 206.50982643 323.99571228 208.81625366 C323.99188857 214.89572233 323.98205951 220.97516721 323.9710083 227.05462646 C323.96079105 233.25467609 323.95621399 239.45472954 323.95117188 245.65478516 C323.94043713 257.82667062 323.92336244 269.99853841 323.90234375 282.17041016 C322.88333984 282.64164307 321.86433594 283.11287598 320.81445312 283.59838867 C319.45829505 284.2277821 318.1021774 284.85726264 316.74609375 285.48681641 C316.07674805 285.79607056 315.40740234 286.10532471 314.71777344 286.4239502 C309.9573843 288.6368328 305.33485817 291.02923127 300.75 293.58837891 C297.46999408 295.41060442 294.1561313 297.16556837 290.83984375 298.92041016 C282.12668771 303.54951913 273.51267936 308.35350485 264.90234375 313.17041016 C263.81542236 313.7768335 263.81542236 313.7768335 262.70654297 314.39550781 C253.08189091 319.76186233 253.08189091 319.76186233 243.58984375 325.35791016 C236.61123152 329.58667187 229.40277178 333.38227978 222.18798828 337.18847656 C207.84921369 344.75328969 193.62432042 352.52537339 179.46484375 360.42041016 C171.66203995 364.76976665 163.80019669 368.99666607 155.90234375 373.17041016 C154.53116587 373.89681387 153.16007459 374.62338107 151.7890625 375.35009766 C148.95117029 376.85393239 146.11259685 378.35646914 143.2734375 379.85791016 C140.24378749 381.46018827 137.21526747 383.06457754 134.1875 384.67041016 C133.41776855 385.078479 132.64803711 385.48654785 131.85498047 385.90698242 C130.3811617 386.68837006 128.90751941 387.4700907 127.43408203 388.25219727 C122.16783668 391.04316728 122.16783668 391.04316728 119.546875 392.29931641 C117.70509017 393.17174558 117.70509017 393.17174558 115.90234375 395.17041016 C113.45839806 396.46529307 111.01152541 397.70778394 108.52734375 398.92041016 C107.80708008 399.27675537 107.08681641 399.63310059 106.34472656 400.00024414 C103.10053829 401.604699 99.85005089 403.19593847 96.59765625 404.78369141 C91.66910756 407.20874653 86.87293666 409.73462701 82.15234375 412.54541016 C77.61426407 415.23878992 73.01106739 417.66169826 68.27734375 419.98291016 C60.14335534 423.98075767 52.25000154 428.35914418 44.34960938 432.796875 C39.87403999 435.30880171 35.39058416 437.80620521 30.90234375 440.29541016 C30.03512695 440.78114502 29.16791016 441.26687988 28.27441406 441.76733398 C27.47100586 442.21230225 26.66759766 442.65727051 25.83984375 443.11572266 C25.12699219 443.51291504 24.41414063 443.91010742 23.6796875 444.31933594 C21.90234375 445.17041016 21.90234375 445.17041016 19.90234375 445.17041016 C19.90234375 445.83041016 19.90234375 446.49041016 19.90234375 447.17041016 C18.86335938 447.67830078 17.824375 448.18619141 16.75390625 448.70947266 C15.34467618 449.40402297 13.93584903 450.09939118 12.52734375 450.79541016 C11.79797607 451.15425293 11.0686084 451.5130957 10.31713867 451.8828125 C5.30895153 454.37832188 0.60664158 457.1215765 -3.984375 460.33447266 C-6.09765625 461.17041016 -6.09765625 461.17041016 -8.5 460.52978516 C-11.37510492 459.02521897 -14.17871164 457.44669413 -16.97265625 455.79541016 C-23.36799827 452.06786444 -29.89753173 448.63148241 -36.47265625 445.23291016 C-43.22812285 441.7400424 -49.93451654 438.19824426 -56.53515625 434.42041016 C-61.40216522 431.6396988 -66.31329277 429.01378772 -71.34765625 426.54541016 C-90.35918787 417.20997259 -108.8748277 406.78705096 -127.44873047 396.61767578 C-130.14276009 395.14576725 -132.84036928 393.68062372 -135.5390625 392.21728516 C-143.81960186 387.72280919 -152.0749744 383.19910666 -160.25 378.51489258 C-171.04814173 372.33303216 -182.0059608 366.54136216 -193.0793457 360.87423706 C-200.90122731 356.87048748 -208.68847284 352.84145491 -216.30957031 348.46362305 C-222.07675698 345.15303308 -227.92909897 342.0080968 -233.78515625 338.85791016 C-242.44818208 334.18896078 -251.03218046 329.40316711 -259.56054688 324.49291992 C-266.02301437 320.77328705 -272.53010012 317.14172009 -279.05957031 313.54125977 C-282.8334246 311.45322479 -286.55437478 309.31596042 -290.22265625 307.04541016 C-294.72575682 304.30406226 -299.40322437 301.96636362 -304.12768555 299.63842773 C-310.97548084 296.25706544 -317.75762557 292.75268756 -324.53515625 289.23291016 C-325.65607666 288.65275146 -326.77699707 288.07259277 -327.93188477 287.47485352 C-329.49700806 286.6609314 -329.49700806 286.6609314 -331.09375 285.83056641 C-332.50418579 285.09785522 -332.50418579 285.09785522 -333.94311523 284.3503418 C-336.09765625 283.17041016 -336.09765625 283.17041016 -337.09765625 282.17041016 C-337.24972084 279.09288607 -337.33693991 276.03632913 -337.38232422 272.95654297 C-337.40025528 271.98907135 -337.41818634 271.02159973 -337.43666077 270.02481079 C-337.49400363 266.80778874 -337.54297024 263.5907261 -337.58984375 260.37353516 C-337.61437811 258.72938755 -337.61437811 258.72938755 -337.63940811 257.05202484 C-337.72450697 251.24976294 -337.80221025 245.44744809 -337.875 239.64501953 C-337.95204623 233.6443462 -338.05740677 227.64451382 -338.16897392 221.64439774 C-338.24907689 217.03777994 -338.30692427 212.43107263 -338.35879898 207.82405853 C-338.38776473 205.61193783 -338.42535267 203.39991277 -338.47167587 201.18808746 C-338.53458711 198.09244804 -338.56578946 194.9980098 -338.58935547 191.90185547 C-338.61511154 190.98632904 -338.64086761 190.07080261 -338.66740417 189.12753296 C-338.66790917 184.65757983 -338.59953648 182.80374774 -335.74099731 179.19647217 C-334.86869476 178.5278717 -333.99639221 177.85927124 -333.09765625 177.17041016 C-332.17855469 176.46142578 -331.25945312 175.75244141 -330.3125 175.02197266 C-320.32425677 168.23615783 -309.78743464 162.59739853 -299.12202454 156.96476746 C-298.21664192 156.48648247 -298.21664192 156.48648247 -297.29296875 155.99853516 C-296.68958176 155.67979935 -296.08619476 155.36106354 -295.46452332 155.03266907 C-289.41072793 151.82462317 -283.43267691 148.48680009 -277.47265625 145.10791016 C-276.56837891 144.59639404 -275.66410156 144.08487793 -274.73242188 143.55786133 C-270.499494 141.15052211 -266.30085013 138.69885178 -262.13671875 136.17431641 C-256.87996695 133.00301992 -251.50130037 130.08201159 -246.09765625 127.17041016 C-244.46282403 126.27719113 -242.82869194 125.3826893 -241.1953125 124.48681641 C-230.17174019 118.45509164 -219.11265945 112.49293057 -208.02832031 106.57388306 C-200.87092936 102.75027484 -193.73761984 98.89036072 -186.66015625 94.92041016 C-176.9166465 89.45918026 -167.00662363 84.3232957 -157.09765625 79.17041016 C-147.26983825 74.05551176 -137.50620205 68.89251544 -127.9140625 63.34619141 C-119.40121268 58.45778317 -110.72597778 53.85051696 -102.09765625 49.17041016 C-100.17575758 48.12618288 -98.25388255 47.08191211 -96.33203125 46.03759766 C-86.08575653 40.47494181 -75.82097304 34.94802781 -65.53820801 29.45318604 C-57.23637277 25.01647943 -48.94292877 20.56946139 -40.72265625 15.98291016 C-40.0359082 15.60191162 -39.34916016 15.22091309 -38.64160156 14.82836914 C-34.53998907 12.54911017 -30.46270617 10.23152462 -26.39453125 7.89306641 C-24.42079245 6.77679273 -22.44683679 5.66090241 -20.47265625 4.54541016 C-19.5595166 4.01149658 -18.64637695 3.47758301 -17.70556641 2.92749023 C-11.62373629 -0.48140864 -6.8985206 -2.7282557 0 0 Z M-19.16015625 102.35791016 C-20.11680176 102.79989746 -21.07344727 103.24188477 -22.05908203 103.69726562 C-30.08412929 107.49667107 -37.6823856 111.88903372 -45.26806641 116.49145508 C-50.43111045 119.62019517 -55.59575205 122.55208965 -61.03515625 125.17041016 C-67.54259638 128.3100529 -73.82270805 131.77695454 -80.09765625 135.35791016 C-91.043621 141.60354887 -102.09932704 147.62479587 -113.19384766 153.6015625 C-117.7545608 156.06558996 -122.30042572 158.55661902 -126.84765625 161.04541016 C-135.96744559 166.03319937 -145.12986645 170.93945872 -154.30029297 175.83322144 C-161.82653446 179.85140661 -169.30444346 183.93786945 -176.71069336 188.17333984 C-181.07683907 190.65013523 -185.52605494 192.90390996 -190.03515625 195.10791016 C-201.66395237 200.81902662 -212.7152737 207.49278272 -223.53515625 214.60791016 C-224.1681665 215.02089355 -224.80117676 215.43387695 -225.45336914 215.859375 C-228.34662854 217.79675047 -230.13998697 219.23390624 -232.09765625 222.17041016 C-228.33691379 226.38700019 -225.24859581 228.18927956 -220.09765625 230.17041016 C-219.76765625 230.50041016 -219.43765625 230.83041016 -219.09765625 231.17041016 C-217.10317341 231.72061232 -215.14234658 232.16342729 -213.09765625 232.48291016 C-211.09765625 233.17041016 -211.09765625 233.17041016 -209.359375 234.98681641 C-206.73951114 237.51618411 -204.09942265 239.03813558 -200.91015625 240.79541016 C-199.63856681 241.50238524 -198.36776537 242.21077907 -197.09765625 242.92041016 C-196.43636719 243.28908203 -195.77507812 243.65775391 -195.09375 244.03759766 C-193.15888361 245.13566273 -191.25072067 246.26824172 -189.34765625 247.42041016 C-179.57803948 253.32658757 -169.55549931 258.63163685 -159.40185547 263.84765625 C-146.96048811 270.24453622 -134.68306462 276.92604687 -122.47265625 283.75244141 C-120.99352517 284.57932798 -119.5143591 285.40615197 -118.03515625 286.23291016 C-117.32456055 286.63034424 -116.61396484 287.02777832 -115.88183594 287.43725586 C-109.01791636 291.25525334 -102.0621446 294.89335225 -95.08764648 298.50463867 C-91.77524208 300.22306582 -88.49754646 301.92823888 -85.3046875 303.86181641 C-83.14216674 305.22359698 -83.14216674 305.22359698 -80.80273438 306.07226562 C-77.95180702 307.22961862 -75.31603953 308.58651069 -72.609375 310.04931641 C-70.9843103 310.92438843 -70.9843103 310.92438843 -69.32641602 311.81713867 C-68.75061798 312.12869904 -68.17481995 312.4402594 -67.58157349 312.76126099 C-65.11660371 314.09451798 -62.64792402 315.42083803 -60.17948914 316.74766541 C-58.19388686 317.81507567 -56.20874724 318.88334294 -54.22363281 319.95166016 C-47.89676458 323.35504253 -41.56495314 326.74906191 -35.22598267 330.12985229 C-33.86924842 330.85428701 -32.51324629 331.58009486 -31.15805054 332.30740356 C-27.41395357 334.31655218 -23.65447121 336.28989384 -19.87509155 338.23181152 C-18.09712321 339.17069164 -16.35961232 340.16431798 -14.6184082 341.16943359 C-8.85863956 344.45117032 -8.85863956 344.45117032 -2.46948242 344.70288086 C0.19498271 343.45851249 2.44643066 342.00304726 4.83984375 340.29541016 C6.66335183 339.12560004 8.48894032 337.95902766 10.31640625 336.79541016 C11.23969727 336.18697266 12.16298828 335.57853516 13.11425781 334.95166016 C17.5114335 332.14239625 22.10574053 329.7349625 26.71484375 327.29541016 C34.67355593 323.00759616 42.49224576 318.51501473 50.27734375 313.92041016 C57.97143973 309.3897404 65.69367632 305.11792907 73.72265625 301.21728516 C85.89785583 295.30070222 97.94911404 289.06251907 109.52734375 282.04541016 C115.55289675 278.40057253 121.70483431 275.26357989 128.08984375 272.29541016 C145.45673445 264.22124523 162.34883113 254.92806446 178.44140625 244.52978516 C184.29140188 240.81239663 190.35851657 238.27299171 196.77124023 235.71166992 C206.58475567 232.01374289 206.58475567 232.01374289 212.90234375 224.17041016 C213.89234375 224.17041016 214.88234375 224.17041016 215.90234375 224.17041016 C215.24234375 223.51041016 214.58234375 222.85041016 213.90234375 222.17041016 C213.90234375 221.18041016 213.90234375 220.19041016 213.90234375 219.17041016 C207.38875502 213.53824742 198.76265156 210.0480109 191.08837891 206.28979492 C181.30597542 201.45994749 171.86753806 196.04737509 162.41259766 190.61132812 C160.29277381 189.39452202 158.16844228 188.18678251 156.0390625 186.98681641 C151.09730056 184.19364661 146.19457104 181.35890477 141.34765625 178.40478516 C132.96826781 173.30194181 124.57740973 168.38763633 115.83984375 163.92041016 C107.43051674 159.61266971 99.26393876 154.94796704 91.15234375 150.10791016 C90.5696875 149.7604071 89.98703125 149.41290405 89.38671875 149.05487061 C84.74075558 146.28129397 80.10298201 143.49414546 75.46630859 140.70507812 C65.37634485 134.64650831 55.09754092 129.02381255 44.70703125 123.49560547 C37.78623034 119.79120242 31.02598515 115.90641239 24.33984375 111.79541016 C18.2168484 108.05426493 12.05232198 104.54492229 5.58984375 101.42041016 C4.91429443 101.08477051 4.23874512 100.74913086 3.54272461 100.40332031 C-5.15189441 96.35071585 -10.99817013 98.51159054 -19.16015625 102.35791016 Z " fill="#323C44" transform="translate(537.09765625,52.82958984375)"/>
<path d="M0 0 C5.07309353 0.37802485 8.78529455 2.31304122 13.0625 4.875 C19.45715104 8.59211757 25.93123969 12.10018481 32.5 15.5 C39.51136553 19.14074787 46.44648779 22.8801747 53.31103516 26.7902832 C57.79120259 29.33768324 62.31616067 31.78403028 66.875 34.1875 C71.89429481 36.83682374 76.79592832 39.62283501 81.63671875 42.5859375 C84.07785294 44.04658308 86.55607259 45.40472112 89.0625 46.75 C93.11111078 48.92826664 97.07239199 51.21890245 101.0168457 53.57788086 C107.03862098 57.17631659 113.06168868 60.62612234 119.375 63.6875 C126.89590913 67.34123048 134.19933815 71.36439433 141.5 75.4375 C142.0921933 75.76783234 142.6843866 76.09816467 143.29452515 76.43850708 C149.32832761 79.80718168 155.3513389 83.19489069 161.36694336 86.59594727 C176.16814015 94.9621863 191.15396378 102.99726141 206.2043457 110.9050293 C210.39872146 113.11989964 214.52285838 115.42935106 218.625 117.8125 C224.82221622 121.39772555 231.14155145 124.71028298 237.5 128 C245.10622001 131.93579806 252.61391221 135.97340064 260.01953125 140.2734375 C264.62902837 142.94368354 269.3087915 145.47689057 274 148 C275.13953125 148.61617187 276.2790625 149.23234375 277.453125 149.8671875 C285.87378694 154.40345077 294.38197946 158.73837597 302.953125 162.98242188 C305.05586874 164.02777444 307.15351409 165.08278275 309.25 166.140625 C313.15772918 168.11212048 317.0766613 170.05974626 321 172 C321.93328125 172.47050781 322.8665625 172.94101562 323.828125 173.42578125 C324.60671875 173.80089844 325.3853125 174.17601562 326.1875 174.5625 C326.82042969 174.87316406 327.45335937 175.18382812 328.10546875 175.50390625 C332.20800189 176.57817781 335.85641447 174.74803605 339.40625 172.77734375 C340.22544922 172.32552734 341.04464844 171.87371094 341.88867188 171.40820312 C342.75041016 170.92287109 343.61214844 170.43753906 344.5 169.9375 C345.84674805 169.18823242 345.84674805 169.18823242 347.22070312 168.42382812 C353.09521739 165.13393121 358.8270291 161.67966042 364.52734375 158.09765625 C369.79338574 154.8576238 375.26100764 151.96295946 380.68945312 149.00708008 C385.34016007 146.47230311 389.94612681 143.89229722 394.5 141.1875 C399.23214592 138.38941933 404.08002927 135.94008929 409.015625 133.5234375 C412.00385394 131.99803267 414.87005511 130.3451833 417.75 128.625 C422.32755057 125.90707935 426.97459637 123.46688975 431.75 121.125 C437.20175892 118.44808067 442.53774322 115.63585618 447.8125 112.625 C453.59148486 109.32872227 459.4197522 106.15106703 465.3125 103.0625 C466.11051025 102.64411865 466.90852051 102.2257373 467.73071289 101.79467773 C470.92581324 100.12279677 474.12306296 98.45514488 477.32373047 96.79394531 C487.77826488 91.36780864 498.07640043 85.72341224 508.30932617 79.88964844 C515.5170008 75.79706866 522.80888554 71.90187498 530.16674805 68.08740234 C537.29769385 64.38601603 544.35587018 60.56243211 551.40063477 56.69995117 C558.74524468 52.67548076 566.11947525 48.70815513 573.5 44.75 C580.11027263 41.20298953 586.7020168 37.64581171 593.1875 33.875 C600.19776345 29.80170478 607.41162844 26.13896106 614.61743164 22.42578125 C619.76236712 19.7550632 624.75216035 17.0134391 629.625 13.875 C635.2546992 10.2959036 641.12101548 7.34082574 647.125 4.4375 C648.05135254 3.98294434 648.97770508 3.52838867 649.93212891 3.06005859 C650.80272949 2.6470752 651.67333008 2.2340918 652.5703125 1.80859375 C653.35164551 1.43532959 654.13297852 1.06206543 654.93798828 0.67749023 C657 0 657 0 660 1 C660.66341019 31.52380125 661.10050892 62.0318368 661.0625 92.5625 C661.06121597 93.60138744 661.06121597 93.60138744 661.05990601 94.66126251 C661.04867652 103.10753352 661.02884771 111.55377043 661 120 C658.64261178 121.26431239 656.28442833 122.52710236 653.92578125 123.7890625 C653.26743286 124.14234619 652.60908447 124.49562988 651.93078613 124.85961914 C647.71912807 127.11119149 643.47654002 129.27451221 639.1875 131.375 C632.9343064 134.47336568 626.84438694 137.81977142 620.75610352 141.22900391 C611.77859608 146.25487754 602.75701056 151.19238104 593.5 155.6875 C583.4287422 160.66868967 573.75635287 166.43624666 564 172 C548.87903768 180.62044747 548.87903768 180.62044747 542.375 183.8125 C526.83746181 191.44570668 511.83208633 200.19927566 496.71459961 208.62255859 C489.13939645 212.83482321 481.52650325 216.96030778 473.84375 220.97265625 C470.80859185 222.56066464 467.80359061 224.19932965 464.80078125 225.84765625 C458.81339856 229.12269605 452.75416227 232.25004721 446.6875 235.375 C438.82977108 239.43940196 431.0733971 243.59033303 423.43359375 248.05078125 C419.23812583 250.43250877 414.96872805 252.65234154 410.6875 254.875 C404.66624964 258.00752852 398.75699483 261.25716537 392.9375 264.75 C385.80936641 269.02824701 378.52628665 272.9706209 371.1875 276.875 C362.03239373 281.74706238 353.05212872 286.81706526 344.22924805 292.26904297 C333.40812193 298.92694967 333.40812193 298.92694967 326 298 C322.18880751 296.36588493 318.64534983 294.3305205 315.0625 292.25 C313.15822123 291.17069353 311.25328412 290.09254771 309.34765625 289.015625 C308.4337915 288.49484375 307.51992676 287.9740625 306.57836914 287.4375 C303.723512 285.84585159 300.82328164 284.38581692 297.88891602 282.94824219 C294.50679167 281.2504044 291.23137563 279.36159148 287.9375 277.5 C280.77906337 273.48381056 273.54010865 269.64634155 266.25 265.875 C259.09774238 262.17129727 252.05848451 258.36772671 245.09765625 254.31640625 C239.22308574 250.9513007 233.22332661 247.81018786 227.25 244.625 C219.34461563 240.40819185 211.44623706 236.1842785 203.625 231.8125 C188.09498065 223.1381232 172.48913933 214.63954924 156.65014648 206.53979492 C152.09086257 204.19456117 147.61030397 201.80752619 143.2421875 199.12109375 C135.83582724 194.60055833 128.03082542 190.8086428 120.29882812 186.88354492 C113.01389521 183.17991122 105.87784615 179.43061252 99 175 C97.30803502 174.11385217 95.60028961 173.25687735 93.875 172.4375 C87.78812267 169.44840845 81.82945469 166.24421645 75.875 163 C74.95702637 162.50169678 74.03905273 162.00339355 73.09326172 161.48999023 C68.67723879 159.07632483 64.31125691 156.60958966 60.0078125 154 C54.76359723 150.82437643 49.39953448 147.90151615 44 145 C41.96874149 143.90105741 39.93749174 142.80209859 37.90625 141.703125 C35.77100396 140.55176684 33.63558562 139.40072817 31.5 138.25 C30.46875 137.693125 29.4375 137.13625 28.375 136.5625 C21.62095532 132.92318467 14.84362271 129.33074686 8.05273438 125.76074219 C6.74184845 125.07121964 6.74184845 125.07121964 5.40447998 124.36776733 C3.26977011 123.24495591 1.1349411 122.12237169 -1 121 C-1.02332938 105.37121639 -1.04097937 89.74243747 -1.05181217 74.11364079 C-1.05697505 66.85741151 -1.06401758 59.60119304 -1.07543945 52.3449707 C-1.08538656 46.02266144 -1.09185349 39.70035999 -1.09408849 33.37804312 C-1.09539556 30.0284325 -1.09848113 26.67884426 -1.10573006 23.3292408 C-1.1129362 19.59586355 -1.11399112 15.86253342 -1.11352539 12.12915039 C-1.11712067 11.01065704 -1.12071594 9.8921637 -1.12442017 8.73977661 C-1.1230455 7.72870346 -1.12167084 6.71763031 -1.12025452 5.67591858 C-1.12117631 4.79191911 -1.1220981 3.90791964 -1.12304783 2.9971323 C-1 1 -1 1 0 0 Z " fill="#DB5D02" transform="translate(201,569)"/>
<path d="M0 0 C16.625 8.3125 16.625 8.3125 18.40283203 9.20361328 C21.58288927 10.79662188 24.76759348 12.37909047 27.9609375 13.9453125 C35.7014646 17.75552833 43.2306666 21.78647875 50.6875 26.125 C54.78481969 28.44423756 58.98357439 30.50515317 63.2109375 32.57421875 C65.84946606 33.92304638 68.35432837 35.38158054 70.875 36.9375 C75.31044879 39.66537186 79.89088511 41.97276384 84.56396484 44.26464844 C89.21827197 46.56629724 93.72089119 49.07818831 98.21508789 51.68066406 C110.608173 58.83716349 123.22011168 65.59808032 135.95556641 72.12304688 C146.92322442 77.74234674 157.67094425 83.60014603 168.27490234 89.87915039 C176.72200175 94.87496613 185.30394013 99.58603756 193.9375 104.25 C198.49239947 106.71266402 203.00082126 109.24987879 207.5 111.8125 C213.33726124 115.12536274 219.26554124 118.18405288 225.2890625 121.1484375 C230.25669352 123.60683971 235.1445724 126.21590305 240.04248047 128.80957031 C244.94695285 131.4026951 249.86480554 133.9675079 254.796875 136.5078125 C255.38624344 136.81168381 255.97561188 137.11555511 256.58283997 137.42863464 C259.48986062 138.92744543 262.39821363 140.42344435 265.30932617 141.91430664 C270.70487123 144.69580107 276.01330791 147.55696041 281.23828125 150.6484375 C286.13169191 153.53818999 291.08370701 156.07813471 296.25 158.4375 C297.8899832 159.20040514 299.52929522 159.96475456 301.16796875 160.73046875 C301.97540527 161.1073584 302.7828418 161.48424805 303.61474609 161.87255859 C307.29162792 163.61051563 310.92754836 165.42642381 314.5625 167.25 C315.22169434 167.57363525 315.88088867 167.89727051 316.56005859 168.23071289 C319.42190292 169.64489912 322.1679485 171.10677217 324.86328125 172.8203125 C327.32909026 174.34658308 329.17712788 175.35683537 332 176 C334.35004387 175.09261499 334.35004387 175.09261499 336.6015625 173.4609375 C341.91241525 170.03417066 347.37817195 167.1303282 353 164.25 C365.36092043 157.85769241 377.53192575 151.1810013 389.5625 144.1875 C397.00168983 139.91319093 404.62561361 136.00988037 412.24707031 132.07250977 C425.10464682 125.41776201 437.92957163 118.65360611 450.375 111.25 C455.39576869 108.27206556 460.56168372 105.68913704 465.79833984 103.12011719 C470.626846 100.73389027 475.32652016 98.17587942 480 95.5 C485.21642443 92.51546275 490.47877339 89.7080613 495.875 87.0625 C501.34048193 84.37667021 506.69419878 81.55117956 512 78.5625 C520.46807793 73.79659432 529.03775132 69.23361677 537.625 64.6875 C559.09328083 53.31594477 580.56933767 41.9223686 601.60888672 29.76977539 C607.12390748 26.58533501 612.68504844 23.62906106 618.40234375 20.828125 C625.21651739 17.42003106 631.85642384 13.66369314 638.53515625 10 C639.87344482 9.26910156 639.87344482 9.26910156 641.23876953 8.5234375 C643.16498254 7.46069929 645.08200545 6.38120661 646.99169922 5.2890625 C647.96252441 4.73992187 648.93334961 4.19078125 649.93359375 3.625 C650.80943115 3.12226563 651.68526855 2.61953125 652.58764648 2.1015625 C655 1 655 1 659 1 C659.91234158 7.19430875 660.13735814 13.19928289 660.11352539 19.45507812 C660.11367142 20.47061768 660.11381744 21.48615723 660.1139679 22.5324707 C660.11327518 25.8654194 660.10551296 29.19831115 660.09765625 32.53125 C660.09578979 34.8515215 660.09436696 37.17179339 660.09336853 39.49206543 C660.08956131 45.58131001 660.07974642 51.67053052 660.06866455 57.75976562 C660.05841177 63.98046544 660.05386264 70.20116916 660.04882812 76.421875 C660.03812248 88.61459388 660.0210677 100.80729493 660 113 C655.32267253 115.4617513 650.64534505 117.9235026 645.96801758 120.38525391 C645.13973387 120.82119905 644.31145016 121.25714418 643.45806694 121.70629978 C641.83907593 122.55838765 640.22006426 123.41043625 638.60103035 124.26244259 C637.86266378 124.65101216 637.12429722 125.03958174 636.36355591 125.43992615 C635.70956881 125.78407279 635.0555817 126.12821943 634.38177681 126.48279476 C624.47692554 131.698684 614.65891129 137.07306066 604.83935547 142.44726562 C601.10759339 144.48802287 597.37248969 146.52262062 593.63745117 148.55737305 C585.74926852 152.85526488 577.86879366 157.16670987 570 161.5 C560.27267606 166.85676988 550.52485845 172.1755323 540.7734375 177.48828125 C538.03576552 178.98050527 535.29897616 180.47433435 532.5625 181.96875 C522.04074079 187.71399759 511.50849489 193.43936346 500.96362305 199.14208984 C496.10338826 201.77185417 491.24728927 204.40856363 486.40234375 207.06640625 C476.98572687 212.23046554 467.53629773 217.30980854 458 222.25 C450.85069556 225.95499344 443.80723225 229.75800213 436.84765625 233.80859375 C431.62632373 236.81630034 426.30420514 239.64208016 421 242.5 C413.53020814 246.52684967 406.11815151 250.61685663 398.7734375 254.8671875 C393.77965698 257.72117336 388.69242921 260.40489119 383.625 263.125 C375.16923809 267.66934808 366.83621177 272.38264429 358.5625 277.25 C356.57044122 278.40647175 354.5782568 279.56272711 352.5859375 280.71875 C349.04540272 282.77852169 345.55983117 284.89910683 342.1015625 287.09375 C340.6308541 287.9802389 339.15954357 288.86572997 337.6875 289.75 C336.74789429 290.38856934 336.74789429 290.38856934 335.78930664 291.04003906 C333.72916328 292.23725651 332.38424823 292.8278623 330 293 C326.02008464 291.52548826 322.59662416 289.22733024 319 287 C316.87073734 285.89961951 314.72817334 284.82466361 312.57421875 283.7734375 C311.45974365 283.22300781 310.34526855 282.67257812 309.19702148 282.10546875 C307.45980835 281.24888672 307.45980835 281.24888672 305.6875 280.375 C296.11477347 275.63098272 286.65762432 270.72229934 277.31054688 265.54492188 C270.00789375 261.51163504 262.61008339 257.68228223 255.1875 253.875 C246.8533225 249.59400849 238.67557362 245.16984244 230.65063477 240.33544922 C225.45075038 237.21616655 220.11875301 234.47657811 214.671875 231.80859375 C201.66567698 225.43640587 189.05718746 218.3687155 176.50753784 211.1491394 C160.62610112 202.01656964 144.51119883 193.34298962 128.27099609 184.86645508 C120.72806194 180.90400766 113.31676534 176.71397437 105.89746094 172.52587891 C98.51856838 168.37399522 91.07822044 164.35117974 83.59866333 160.38504028 C70.83854447 153.61593556 58.37037335 146.4542319 46 139 C32.04557392 130.60463459 18.18262084 122.50284541 3.2746582 115.89477539 C2.47187943 115.53871719 1.66910065 115.182659 0.84199524 114.81581116 C-0.0697924 114.41198463 -0.0697924 114.41198463 -1 114 C-1.02334974 99.57921336 -1.04092294 85.15842964 -1.05181217 70.73762798 C-1.05703763 64.04195669 -1.06400501 57.34629847 -1.07543945 50.65063477 C-1.08628024 44.19270007 -1.09227938 37.73477758 -1.09487724 31.27683449 C-1.09672933 28.80920024 -1.10034583 26.34156668 -1.10573006 23.87393761 C-1.11295624 20.42595331 -1.11399027 16.97801991 -1.11352539 13.5300293 C-1.11712067 12.50288315 -1.12071594 11.475737 -1.12442017 10.41746521 C-1.1230455 9.47937012 -1.12167084 8.54127502 -1.12025452 7.57475281 C-1.12117631 6.75896602 -1.1220981 5.94317923 -1.12304783 5.10267162 C-1 3 -1 3 0 0 Z " fill="#DA873A" transform="translate(201,395)"/>
<path d="M0 0 C0.66341019 30.52380125 1.10050892 61.0318368 1.0625 91.5625 C1.06164398 92.25509163 1.06078796 92.94768326 1.05990601 93.66126251 C1.04867652 102.10753352 1.02884771 110.55377043 1 119 C-1.35738822 120.26431239 -3.71557167 121.52710236 -6.07421875 122.7890625 C-6.73256714 123.14234619 -7.39091553 123.49562988 -8.06921387 123.85961914 C-12.28087193 126.11119149 -16.52345998 128.27451221 -20.8125 130.375 C-27.0656936 133.47336568 -33.15561306 136.81977142 -39.24389648 140.22900391 C-48.22140392 145.25487754 -57.24298944 150.19238104 -66.5 154.6875 C-76.5712578 159.66868967 -86.24364713 165.43624666 -96 171 C-111.12096232 179.62044747 -111.12096232 179.62044747 -117.625 182.8125 C-133.16253819 190.44570668 -148.16791367 199.19927566 -163.28540039 207.62255859 C-170.86060355 211.83482321 -178.47349675 215.96030778 -186.15625 219.97265625 C-189.19140815 221.56066464 -192.19640939 223.19932965 -195.19921875 224.84765625 C-201.18660144 228.12269605 -207.24583773 231.25004721 -213.3125 234.375 C-221.17022892 238.43940196 -228.9266029 242.59033303 -236.56640625 247.05078125 C-240.76187417 249.43250877 -245.03127195 251.65234154 -249.3125 253.875 C-255.33375112 257.00752892 -261.24300414 260.25716406 -267.0625 263.75 C-275.39206859 268.74934705 -283.94077639 273.31142124 -292.52075195 277.86450195 C-299.91884866 281.81062571 -307.05734868 285.99177477 -314.046875 290.62109375 C-317.55182569 292.25766464 -319.32745825 292.01709614 -323 291 C-323 291.66 -323 292.32 -323 293 C-324.65 293.33 -326.3 293.66 -328 294 C-328 294.66 -328 295.32 -328 296 C-328.66 296 -329.32 296 -330 296 C-330.02336818 281.22260344 -330.04099845 266.44520933 -330.05181217 251.66779804 C-330.05696679 244.80627639 -330.06399362 237.94476623 -330.07543945 231.08325195 C-330.0864772 224.46321323 -330.0922823 217.84318331 -330.09487724 211.22313499 C-330.09672685 208.69574991 -330.1003386 206.1683655 -330.10573006 203.64098549 C-330.11297443 200.10479946 -330.11398949 196.56866295 -330.11352539 193.0324707 C-330.11712067 191.98446289 -330.12071594 190.93645508 -330.12442017 189.85668945 C-330.1230455 188.89060257 -330.12167084 187.92451569 -330.12025452 186.92915344 C-330.12117631 186.09308721 -330.1220981 185.25702097 -330.12304783 184.39561939 C-329.99226912 181.84948745 -329.55824805 179.48462741 -329 177 C-328.34 177 -327.68 177 -327 177 C-327 176.34 -327 175.68 -327 175 C-326.10244995 174.51756836 -326.10244995 174.51756836 -325.18676758 174.02539062 C-315.10617184 168.59640946 -305.08831616 163.17191755 -295.40234375 157.0625 C-290.1345865 153.86918677 -284.71924303 150.9521826 -279.31005859 148.00683594 C-274.65952898 145.47211574 -270.05371632 142.89220404 -265.5 140.1875 C-260.76785408 137.38941933 -255.91997073 134.94008929 -250.984375 132.5234375 C-247.99614606 130.99803267 -245.12994489 129.3451833 -242.25 127.625 C-237.67244943 124.90707935 -233.02540363 122.46688975 -228.25 120.125 C-222.79824108 117.44808067 -217.46225678 114.63585618 -212.1875 111.625 C-206.40851514 108.32872227 -200.5802478 105.15106703 -194.6875 102.0625 C-193.49048462 101.43492798 -193.49048462 101.43492798 -192.26928711 100.79467773 C-189.07418676 99.12279677 -185.87693704 97.45514488 -182.67626953 95.79394531 C-172.22173512 90.36780864 -161.92359957 84.72341224 -151.69067383 78.88964844 C-144.4829992 74.79706866 -137.19111446 70.90187498 -129.83325195 67.08740234 C-122.70230615 63.38601603 -115.64412982 59.56243211 -108.59936523 55.69995117 C-101.25475532 51.67548076 -93.88052475 47.70815513 -86.5 43.75 C-79.88972737 40.20298953 -73.2979832 36.64581171 -66.8125 32.875 C-59.80223655 28.80170478 -52.58837156 25.13896106 -45.38256836 21.42578125 C-40.23763288 18.7550632 -35.24783965 16.0134391 -30.375 12.875 C-24.7453008 9.2959036 -18.87898452 6.34082574 -12.875 3.4375 C-11.94864746 2.98294434 -11.02229492 2.52838867 -10.06787109 2.06005859 C-9.19727051 1.6470752 -8.32666992 1.2340918 -7.4296875 0.80859375 C-6.64835449 0.43532959 -5.86702148 0.06206543 -5.06201172 -0.32250977 C-3 -1 -3 -1 0 0 Z " fill="#AC2903" transform="translate(861,570)"/>
<path d="M0 0 C0.91234158 6.19430875 1.13735814 12.19928289 1.11352539 18.45507812 C1.11367142 19.47061768 1.11381744 20.48615723 1.1139679 21.5324707 C1.11327518 24.8654194 1.10551296 28.19831115 1.09765625 31.53125 C1.09578979 33.8515215 1.09436696 36.17179339 1.09336853 38.49206543 C1.08956131 44.58131001 1.07974642 50.67053052 1.06866455 56.75976562 C1.05841177 62.98046544 1.05386264 69.20116916 1.04882812 75.421875 C1.03812248 87.61459388 1.0210677 99.80729493 1 112 C-3.67732747 114.4617513 -8.35465495 116.9235026 -13.03198242 119.38525391 C-13.86026613 119.82119905 -14.68854984 120.25714418 -15.54193306 120.70629978 C-17.16092407 121.55838765 -18.77993574 122.41043625 -20.39896965 123.26244259 C-21.13733622 123.65101216 -21.87570278 124.03958174 -22.63644409 124.43992615 C-23.61742475 124.95614611 -23.61742475 124.95614611 -24.61822319 125.48279476 C-34.52307446 130.698684 -44.34108871 136.07306066 -54.16064453 141.44726562 C-57.89240661 143.48802287 -61.62751031 145.52262062 -65.36254883 147.55737305 C-73.25073148 151.85526488 -81.13120634 156.16670987 -89 160.5 C-98.72732394 165.85676988 -108.47514155 171.1755323 -118.2265625 176.48828125 C-120.96423448 177.98050527 -123.70102384 179.47433435 -126.4375 180.96875 C-136.95925921 186.71399759 -147.49150511 192.43936346 -158.03637695 198.14208984 C-162.89661174 200.77185417 -167.75271073 203.40856363 -172.59765625 206.06640625 C-182.01427313 211.23046554 -191.46370227 216.30980854 -201 221.25 C-208.14930444 224.95499344 -215.19276775 228.75800213 -222.15234375 232.80859375 C-227.37367627 235.81630034 -232.69579486 238.64208016 -238 241.5 C-245.46979186 245.52684967 -252.88184849 249.61685663 -260.2265625 253.8671875 C-265.22034302 256.72117336 -270.30757079 259.40489119 -275.375 262.125 C-284.85443064 267.21949448 -294.16741645 272.55306974 -303.43701172 278.01855469 C-311.82410752 282.94557219 -320.34837919 287.5566404 -329 292 C-329.99 291.34 -330.98 290.68 -332 290 C-331.34 290 -330.68 290 -330 290 C-328.81806273 279.03270053 -328.91804906 268.11926357 -328.98416138 257.10411263 C-329.01148929 251.48543338 -329.0012504 245.86677407 -328.99609375 240.24804688 C-328.98987481 233.12849722 -328.99561349 226.00974598 -329.05126953 218.89038086 C-329.09550245 213.10427766 -329.09611905 207.3196275 -329.06713867 201.53344536 C-329.06406016 199.33620053 -329.07693615 197.13887223 -329.10620117 194.94182014 C-329.14485087 191.87499419 -329.12772212 188.81315256 -329.09765625 185.74633789 C-329.12223404 184.84390854 -329.14681183 183.94147919 -329.1721344 183.01170349 C-329.11163699 180.3864529 -328.95887964 178.44859596 -328 176 C-325.28006242 173.41296632 -322.3283149 171.700544 -319 170 C-317.4996521 169.15066895 -317.4996521 169.15066895 -315.96899414 168.28417969 C-315.08332764 167.83461914 -314.19766113 167.38505859 -313.28515625 166.921875 C-312.27815674 166.40584717 -311.27115723 165.88981934 -310.23364258 165.3581543 C-309.18716553 164.82746338 -308.14068848 164.29677246 -307.0625 163.75 C-294.33065449 157.21162107 -281.81163265 150.37827926 -269.4375 143.1875 C-261.99831017 138.91319093 -254.37438639 135.00988037 -246.75292969 131.07250977 C-233.89535318 124.41776201 -221.07042837 117.65360611 -208.625 110.25 C-203.60423131 107.27206556 -198.43831628 104.68913704 -193.20166016 102.12011719 C-188.373154 99.73389027 -183.67347984 97.17587942 -179 94.5 C-173.78357557 91.51546275 -168.52122661 88.7080613 -163.125 86.0625 C-157.65951807 83.37667021 -152.30580122 80.55117956 -147 77.5625 C-138.53192207 72.79659432 -129.96224868 68.23361677 -121.375 63.6875 C-99.90671917 52.31594477 -78.43066233 40.9223686 -57.39111328 28.76977539 C-51.87609252 25.58533501 -46.31495156 22.62906106 -40.59765625 19.828125 C-33.78348261 16.42003106 -27.14357616 12.66369314 -20.46484375 9 C-19.57265137 8.51273437 -18.68045898 8.02546875 -17.76123047 7.5234375 C-15.83501746 6.46069929 -13.91799455 5.38120661 -12.00830078 4.2890625 C-11.03747559 3.73992187 -10.06665039 3.19078125 -9.06640625 2.625 C-8.19056885 2.12226563 -7.31473145 1.61953125 -6.41235352 1.1015625 C-4 0 -4 0 0 0 Z " fill="#B2A89C" transform="translate(860,396)"/>
<path d="M0 0 C2.99254697 1.2232138 5.7938409 2.75700684 8.625 4.3125 C9.87482666 4.98539063 9.87482666 4.98539063 11.14990234 5.671875 C21.6293204 11.35536032 31.90341497 17.39449463 42.1640625 23.4609375 C42.83824219 23.85925781 43.51242187 24.25757813 44.20703125 24.66796875 C45.57208147 25.4744707 46.93666317 26.28176618 48.30078125 27.08984375 C52.3885075 29.50016662 56.50419636 31.85212925 60.6484375 34.1640625 C69.83032262 39.286572 78.88578105 44.39848786 87.5378418 50.38037109 C95.01926615 55.49287067 103.02943174 59.70885787 111 64 C109.47088032 67.05823935 106.53831993 67.83648553 103.5625 69.25 C86.7743458 77.4348119 70.4079934 86.52309918 54.17919922 95.76171875 C51.59236463 97.23162969 49.00140784 98.69413987 46.41015625 100.15625 C22.86084988 113.01472483 22.86084988 113.01472483 0 127 C-4.12229767 126.68448304 -6.96487234 125.02311642 -10.4375 122.875 C-15.88492144 119.60787254 -21.43634285 116.73429509 -27.1328125 113.9296875 C-32.24440285 111.39901396 -37.27741754 108.72028154 -42.31835938 106.05249023 C-46.86121087 103.64960369 -51.41198957 101.26375925 -55.9765625 98.90234375 C-56.98855713 98.37793701 -58.00055176 97.85353027 -59.04321289 97.31323242 C-60.99682196 96.30175358 -62.9516592 95.29264184 -64.90795898 94.28637695 C-69.42418671 91.94473311 -73.8448508 89.52638007 -78.1875 86.875 C-82.32790979 84.35478602 -86.51792191 82.22857332 -90.9375 80.25 C-100.48817718 75.87174149 -109.74442757 70.96573185 -119 66 C-119 65.01 -119 64.02 -119 63 C-117.08251953 61.53295898 -117.08251953 61.53295898 -114.3828125 59.99609375 C-112.8975708 59.14023682 -112.8975708 59.14023682 -111.38232422 58.26708984 C-110.30740723 57.6633252 -109.23249023 57.05956055 -108.125 56.4375 C-107.02816895 55.81053223 -105.93133789 55.18356445 -104.80126953 54.53759766 C-101.54114634 52.67908496 -98.27231067 50.83695155 -95 49 C-94.15888672 48.52546387 -93.31777344 48.05092773 -92.45117188 47.56201172 C-85.47685305 43.63111351 -78.45494489 39.78940511 -71.421875 35.96484375 C-70.46635742 35.44519043 -69.51083984 34.92553711 -68.52636719 34.39013672 C-66.60545049 33.34562614 -64.68423065 32.30167284 -62.76269531 31.25830078 C-58.00021888 28.66494802 -53.28211753 26.02781875 -48.625 23.25 C-43.56579339 20.24791332 -38.35605725 17.64757605 -33.07861328 15.05859375 C-28.45701563 12.77490269 -23.95907333 10.33583872 -19.5 7.75 C-4.98135151 -0.64075476 -4.98135151 -0.64075476 0 0 Z " fill="#D95A04" transform="translate(533,210)"/>
<path d="M0 0 C104.28 0 208.56 0 316 0 C316 0.33 316 0.66 316 1 C211.72 1 107.44 1 0 1 C0 0.67 0 0.34 0 0 Z " fill="#FEFEFB" transform="translate(460,1023)"/>
<path d="M0 0 C-0.97231882 3.59757962 -1.59555803 4.76261015 -4.875 6.6875 C-5.90625 7.120625 -6.9375 7.55375 -8 8 C-9.33494104 8.66344152 -10.66818641 9.33030247 -12 10 C-13.00740234 10.46019531 -13.00740234 10.46019531 -14.03515625 10.9296875 C-18.32342021 12.84910712 -18.32342021 12.84910712 -21.5625 16.125 C-23.75374499 18.98314563 -26.61194316 19.12161489 -30 20 C-30.33 20.66 -30.66 21.32 -31 22 C-32.33333333 22.33333333 -33.66666667 22.66666667 -35 23 C-35.763125 23.474375 -36.52625 23.94875 -37.3125 24.4375 C-40.44484038 26.25862813 -43.50144014 27.10821023 -47 28 C-47 28.66 -47 29.32 -47 30 C-49.50118285 31.6296273 -52.09956444 33.02662405 -54.71484375 34.46484375 C-57.29239843 35.85862703 -57.29239843 35.85862703 -58 39 C-56.35 39.33 -54.7 39.66 -53 40 C-53.33 40.66 -53.66 41.32 -54 42 C-58.05281712 40.77472971 -61.44360764 39.30119506 -65 37 C-62.8123057 33.71845856 -61.50606749 32.98693088 -58.07421875 31.20703125 C-57.08470215 30.68447754 -56.09518555 30.16192383 -55.07568359 29.62353516 C-54.06070801 29.08776855 -53.04573242 28.55200195 -52 28 C-50.14823452 26.96958993 -48.30048682 25.93192297 -46.45703125 24.88671875 C-45.53631836 24.36537354 -44.61560547 23.84402832 -43.66699219 23.30688477 C-42.72500977 22.77248779 -41.78302734 22.23809082 -40.8125 21.6875 C-38.79302822 20.54416578 -36.7734967 19.40093707 -34.75390625 18.2578125 C-33.77566895 17.70383789 -32.79743164 17.14986328 -31.78955078 16.57910156 C-25.53445209 13.03823176 -19.2725724 9.50982141 -13 6 C-11.89398438 5.37867188 -10.78796875 4.75734375 -9.6484375 4.1171875 C-8.65070313 3.56289062 -7.65296875 3.00859375 -6.625 2.4375 C-5.77164063 1.96183594 -4.91828125 1.48617187 -4.0390625 0.99609375 C-2 0 -2 0 0 0 Z " fill="#E07E31" transform="translate(478,238)"/>
<path d="M0 0 C7.18216433 2.27435204 14.0758202 5.03584181 21 8 C20.01 8.495 20.01 8.495 19 9 C18.67 48.27 18.34 87.54 18 128 C18.66 128 19.32 128 20 128 C20 127.34 20 126.68 20 126 C22.475 125.505 22.475 125.505 25 125 C25 124.34 25 123.68 25 123 C26.32 123 27.64 123 29 123 C29 123.66 29 124.32 29 125 C27.82289824 125.68485921 26.63253055 126.34692828 25.4375 127 C24.77621094 127.37125 24.11492188 127.7425 23.43359375 128.125 C19.43732641 129.56186017 15.92985364 129.7976454 11.93969727 128.1484375 C9.76323176 127.00327179 7.66256753 125.77963858 5.5625 124.5 C4.83095703 124.07074219 4.09941406 123.64148438 3.34570312 123.19921875 C1.55578437 122.14632537 -0.22326854 121.07499718 -2 120 C0.6666419 118.66667905 2.16680303 119.32897967 5 120 C5 120.66 5 121.32 5 122 C6.65 122 8.3 122 10 122 C10.33 122.99 10.66 123.98 11 125 C14.00847418 126.22520264 14.00847418 126.22520264 17 127 C16.83773926 125.78997314 16.67547852 124.57994629 16.50830078 123.33325195 C15.82204717 117.11422042 15.85697278 110.91842091 15.8671875 104.66796875 C15.86520859 102.73235832 15.86520859 102.73235832 15.8631897 100.75764465 C15.86050559 97.28407099 15.86492947 93.81054245 15.87142944 90.3369751 C15.87500548 88.18420274 15.87661973 86.03143707 15.87768555 83.87866211 C15.89283767 59.24293049 16.25233654 34.62517087 17 10 C16.21826416 9.85812256 15.43652832 9.71624512 14.63110352 9.57006836 C11.88498783 8.97508087 10.25516914 8.11529225 7.9375 6.5625 C5.35447512 4.84900825 2.7975545 3.33958623 0 2 C0 1.34 0 0.68 0 0 Z " fill="#E46415" transform="translate(513,738)"/>
<path d="M0 0 C84.48 0 168.96 0 256 0 C256 0.33 256 0.66 256 1 C171.52 1 87.04 1 0 1 C0 0.67 0 0.34 0 0 Z " fill="#FEFEFB" transform="translate(24,1023)"/>
<path d="M0 0 C0.66341019 30.52380125 1.10050892 61.0318368 1.0625 91.5625 C1.06164398 92.25509163 1.06078796 92.94768326 1.05990601 93.66126251 C1.04867652 102.10753352 1.02884771 110.55377043 1 119 C0.34 119 -0.32 119 -1 119 C-1.00423194 118.42039363 -1.00846388 117.84078726 -1.01282406 117.24361706 C-1.11608065 103.14747383 -1.22471093 89.05138061 -1.33933926 74.95532513 C-1.39464249 68.13860983 -1.44811973 61.3218893 -1.49731445 54.50512695 C-1.54476725 47.93044524 -1.59728725 41.35581676 -1.65294075 34.7811985 C-1.67337031 32.26892221 -1.69208238 29.75663135 -1.70907402 27.24432945 C-1.73310461 23.73404029 -1.76316121 20.22385184 -1.79467773 16.71362305 C-1.80331093 15.14485161 -1.80331093 15.14485161 -1.81211853 13.54438782 C-1.82190735 12.58946442 -1.83169617 11.63454102 -1.84178162 10.65068054 C-1.84823417 9.82014506 -1.85468672 8.98960958 -1.8613348 8.13390636 C-1.92147242 5.81217481 -1.92147242 5.81217481 -3 3 C-3.845625 3.45375 -4.69125 3.9075 -5.5625 4.375 C-10.50545905 6.71167155 -14.63497049 8.63996535 -20 7 C-17.23682377 5.62978206 -14.46341522 4.28169824 -11.6875 2.9375 C-10.90181641 2.54755859 -10.11613281 2.15761719 -9.30664062 1.75585938 C-8.54931641 1.39169922 -7.79199219 1.02753906 -7.01171875 0.65234375 C-6.31522217 0.31195068 -5.61872559 -0.02844238 -4.90112305 -0.37915039 C-3 -1 -3 -1 0 0 Z " fill="#BD7B6A" transform="translate(861,570)"/>
<path d="M0 0 C72.6 0 145.2 0 220 0 C220 0.33 220 0.66 220 1 C147.4 1 74.8 1 0 1 C0 0.67 0 0.34 0 0 Z " fill="#FEFEFB" transform="translate(780,1023)"/>
<path d="M0 0 C51.48 0 102.96 0 156 0 C156 0.33 156 0.66 156 1 C104.52 1 53.04 1 0 1 C0 0.67 0 0.34 0 0 Z " fill="#FEFEFA" transform="translate(300,1023)"/>
<path d="M0 0 C0.33 0 0.66 0 1 0 C2.23980244 11.82209744 2.1280869 23.61655296 2.09765625 35.48828125 C2.09578769 37.64446479 2.09436586 39.80064876 2.09336853 41.95683289 C2.08957781 47.59061893 2.07977752 53.22437858 2.06866455 58.8581543 C2.05837578 64.62353153 2.05385502 70.38891308 2.04882812 76.15429688 C2.03815167 87.43620942 2.02111737 98.7181025 2 110 C0.02 110.99 0.02 110.99 -2 112 C-2.66 111.34 -3.32 110.68 -4 110 C-3.34 110 -2.68 110 -2 110 C-0.80507043 98.18374745 -0.77957405 86.37648286 -0.68359375 74.51171875 C-0.66298315 72.3555312 -0.64198572 70.19934732 -0.62062073 68.04316711 C-0.56582356 62.4094238 -0.51623021 56.77564664 -0.46777344 51.1418457 C-0.41724612 45.37643475 -0.36172424 39.61107203 -0.30664062 33.84570312 C-0.19957834 22.56384345 -0.09802139 11.2819416 0 0 Z " fill="#C1AEA0" transform="translate(532,576)"/>
<path d="M0 0 C2 1 2 1 3 3 C1.35 3.33 -0.3 3.66 -2 4 C-3.58825422 10.81102596 -4.30189066 17.23863952 -4.31884766 24.22314453 C-4.32889328 25.19020828 -4.3389389 26.15727203 -4.34928894 27.15364075 C-4.37989454 30.31335925 -4.39709264 33.47299393 -4.4140625 36.6328125 C-4.43279238 38.83813182 -4.45236712 41.0434441 -4.4727478 43.24874878 C-4.52388273 49.02555175 -4.56360785 54.80237791 -4.60089111 60.57928467 C-4.64104808 66.48520557 -4.69208688 72.39103156 -4.7421875 78.296875 C-4.8387259 89.86451649 -4.92320085 101.43221179 -5 113 C-5.33 113 -5.66 113 -6 113 C-6.02316082 99.52644115 -6.04093422 86.05288702 -6.05181217 72.57931232 C-6.05703279 66.32313141 -6.0641156 60.0669641 -6.07543945 53.81079102 C-6.08629742 47.77429762 -6.09228303 41.73781733 -6.09487724 35.70131493 C-6.09672623 33.39721661 -6.10033678 31.09311901 -6.10573006 28.78902626 C-6.11297902 25.56416901 -6.1139893 22.33936603 -6.11352539 19.11450195 C-6.11712067 18.16000153 -6.12071594 17.2055011 -6.12442017 16.22207642 C-6.11787131 12.02051447 -6.080435 8.09426766 -5 4 C-4.34 4 -3.68 4 -3 4 C-3 3.34 -3 2.68 -3 2 C-2.01 1.34 -1.02 0.68 0 0 Z " fill="#BD3C00" transform="translate(537,743)"/>
<path d="M0 0 C4.3177458 0.50797009 8.03302114 1.19682779 12 3 C12 3.66 12 4.32 12 5 C12.66 5.103125 13.32 5.20625 14 5.3125 C24.08196721 7.62295082 24.08196721 7.62295082 27 12 C29.04933233 12.86531286 29.04933233 12.86531286 31.375 13.4375 C35.17942392 14.60149443 37.55864191 15.70947388 40 19 C40 19.66 40 20.32 40 21 C36.68711427 19.72345175 33.54532688 18.30875872 30.41015625 16.64453125 C29.11887817 15.9625769 29.11887817 15.9625769 27.80151367 15.2668457 C26.89763916 14.78691162 25.99376465 14.30697754 25.0625 13.8125 C16.76031621 9.43105225 8.4216887 5.14715091 0 1 C0 0.67 0 0.34 0 0 Z " fill="#D98039" transform="translate(424,280)"/>
<path d="M0 0 C0.66 0.33 1.32 0.66 2 1 C0.10595266 4.34243648 -0.94091591 4.97997149 -4.6875 6.25 C-6.3271875 6.62125 -6.3271875 6.62125 -8 7 C-8 7.66 -8 8.32 -8 9 C-8.804375 9.28875 -9.60875 9.5775 -10.4375 9.875 C-13.1326468 10.73262568 -13.1326468 10.73262568 -14 13 C-15.98246398 14.03432904 -17.98413316 15.03238392 -20 16 C-20.99 16.66 -21.98 17.32 -23 18 C-25.26171875 18.4140625 -25.26171875 18.4140625 -27.6875 18.625 C-28.49574219 18.69976563 -29.30398438 18.77453125 -30.13671875 18.8515625 C-31.05904297 18.92503906 -31.05904297 18.92503906 -32 19 C-28.41517155 16.11018931 -24.51694621 13.96582079 -20.5 11.75 C-14.38335898 8.35895888 -14.38335898 8.35895888 -8.3515625 4.8203125 C-7.28679688 4.17835938 -6.22203125 3.53640625 -5.125 2.875 C-4.17882812 2.29492188 -3.23265625 1.71484375 -2.2578125 1.1171875 C-1.14019531 0.56417969 -1.14019531 0.56417969 0 0 Z " fill="#A75530" transform="translate(571,724)"/>
<path d="M0 0 C0 12.54 0 25.08 0 38 C-0.33 38 -0.66 38 -1 38 C-1.02505615 37.04633545 -1.0501123 36.0926709 -1.07592773 35.11010742 C-1.17012071 31.57090893 -1.27031231 28.03190125 -1.37231445 24.49291992 C-1.41561833 22.96138982 -1.45729667 21.42981285 -1.49731445 19.89819336 C-1.55512732 17.69630818 -1.61878969 15.49465789 -1.68359375 13.29296875 C-1.70030624 12.60849167 -1.71701874 11.92401459 -1.73423767 11.21879578 C-1.8273555 8.22879896 -2.04687437 5.85937689 -3 3 C-3.845625 3.45375 -4.69125 3.9075 -5.5625 4.375 C-10.50545905 6.71167155 -14.63497049 8.63996535 -20 7 C-17.23682377 5.62978206 -14.46341522 4.28169824 -11.6875 2.9375 C-10.90181641 2.54755859 -10.11613281 2.15761719 -9.30664062 1.75585938 C-8.54931641 1.39169922 -7.79199219 1.02753906 -7.01171875 0.65234375 C-6.31522217 0.31195068 -5.61872559 -0.02844238 -4.90112305 -0.37915039 C-3 -1 -3 -1 0 0 Z " fill="#A16155" transform="translate(861,570)"/>
<path d="M0 0 C-0.97231882 3.59757962 -1.59555803 4.76261015 -4.875 6.6875 C-5.90625 7.120625 -6.9375 7.55375 -8 8 C-8.62003906 8.31324219 -9.24007813 8.62648437 -9.87890625 8.94921875 C-12.23661656 10.11721889 -14.62572971 11.13265011 -17.0625 12.125 C-17.91972656 12.47820312 -18.77695312 12.83140625 -19.66015625 13.1953125 C-22 14 -22 14 -25 14 C-25 14.66 -25 15.32 -25 16 C-26.32 15.67 -27.64 15.34 -29 15 C-23.67145923 11.99141362 -18.33767328 8.99235095 -13 6 C-11.86433594 5.36191406 -10.72867187 4.72382813 -9.55859375 4.06640625 C-8.59050781 3.52886719 -7.62242187 2.99132812 -6.625 2.4375 C-5.77164062 1.96183594 -4.91828125 1.48617187 -4.0390625 0.99609375 C-2 0 -2 0 0 0 Z " fill="#DE9C5B" transform="translate(478,238)"/>
<path d="M0 0 C0.66 0 1.32 0 2 0 C2 3.3 2 6.6 2 10 C2.66 10 3.32 10 4 10 C4 9.34 4 8.68 4 8 C5.65 7.67 7.3 7.34 9 7 C9 6.34 9 5.68 9 5 C10.32 5 11.64 5 13 5 C13 5.66 13 6.32 13 7 C11.82289824 7.68485921 10.63253055 8.34692828 9.4375 9 C8.44556641 9.556875 8.44556641 9.556875 7.43359375 10.125 C3.43732641 11.56186017 -0.07014636 11.7976454 -4.06030273 10.1484375 C-6.23676824 9.00327179 -8.33743247 7.77963858 -10.4375 6.5 C-11.16904297 6.07074219 -11.90058594 5.64148438 -12.65429688 5.19921875 C-14.44421563 4.14632537 -16.22326854 3.07499718 -18 2 C-15.3333581 0.66667905 -13.83319697 1.32897967 -11 2 C-11 2.66 -11 3.32 -11 4 C-9.35 4 -7.7 4 -6 4 C-5.67 4.99 -5.34 5.98 -5 7 C-1.99152582 8.22520264 -1.99152582 8.22520264 1 9 C0.67 6.03 0.34 3.06 0 0 Z " fill="#DC7633" transform="translate(529,856)"/>
<path d="M0 0 C0.66 0.33 1.32 0.66 2 1 C0.11494586 4.32656613 -0.86817772 4.95908964 -4.625 6.125 C-5.73875 6.41375 -6.8525 6.7025 -8 7 C-8.33 7.66 -8.66 8.32 -9 9 C-10.33333333 9.33333333 -11.66666667 9.66666667 -13 10 C-13.804375 10.495 -14.60875 10.99 -15.4375 11.5 C-18.03026793 13.01771781 -20.04929976 13.57847139 -23 14 C-22.34 13.67 -21.68 13.34 -21 13 C-20.90074219 12.38640625 -20.80148437 11.7728125 -20.69921875 11.140625 C-19.65408518 7.94099819 -17.72388144 7.30587996 -14.8125 5.75 C-13.87019531 5.22921875 -12.92789062 4.7084375 -11.95703125 4.171875 C-8.74782011 2.90006081 -6.41939684 2.77710598 -3 3 C-3 2.34 -3 1.68 -3 1 C-2.01 0.67 -1.02 0.34 0 0 Z " fill="#E08230" transform="translate(456,251)"/>
<path d="M0 0 C-0.33 1.32 -0.66 2.64 -1 4 C-2.134375 4.268125 -3.26875 4.53625 -4.4375 4.8125 C-6.2009375 5.4003125 -6.2009375 5.4003125 -8 6 C-8.33 6.99 -8.66 7.98 -9 9 C-10.093125 9.309375 -11.18625 9.61875 -12.3125 9.9375 C-16.02899564 10.66891191 -16.02899564 10.66891191 -18 13.125 C-20 15 -20 15 -23.75 15.25 C-24.8225 15.1675 -25.895 15.085 -27 15 C-24.35848234 12.9468896 -21.71149913 11.19447549 -18.77734375 9.58984375 C-17.99166016 9.15736328 -17.20597656 8.72488281 -16.39648438 8.27929688 C-15.58501953 7.83650391 -14.77355469 7.39371094 -13.9375 6.9375 C-12.32098441 6.05193059 -10.7050738 5.16525575 -9.08984375 4.27734375 C-8.02044556 3.69327759 -8.02044556 3.69327759 -6.92944336 3.09741211 C-1.4836485 0 -1.4836485 0 0 0 Z " fill="#A94F32" transform="translate(797,602)"/>
<path d="M0 0 C0.33 0 0.66 0 1 0 C1.17707131 8.79681866 1.34301924 17.59375638 1.49477577 26.39104843 C1.56559207 30.47599513 1.64023595 34.56079705 1.72363281 38.64550781 C1.80397663 42.58758611 1.87425878 46.52972726 1.93757248 50.47211456 C1.963493 51.97606259 1.99303657 53.47995269 2.02626419 54.98375702 C2.07219189 57.09036954 2.10522442 59.19682012 2.13525391 61.30371094 C2.15746002 62.50284119 2.17966614 63.70197144 2.20254517 64.93743896 C2 68 2 68 0 72 C0 48.24 0 24.48 0 0 Z " fill="#FBFBFD" transform="translate(0,936)"/>
<path d="M0 0 C-0.1875 1.8125 -0.1875 1.8125 -1 4 C-5.57480127 7.16717011 -8.46134711 8.1204055 -14 8 C-14.165 8.639375 -14.33 9.27875 -14.5 9.9375 C-16 12 -16 12 -17.9140625 12.48828125 C-19.93575155 12.7275978 -21.96841939 12.86893028 -24 13 C-21.76503893 10.54879544 -19.55118937 9.05885408 -16.62109375 7.51953125 C-15.78255859 7.07802734 -14.94402344 6.63652344 -14.08007812 6.18164062 C-13.20802734 5.72982422 -12.33597656 5.27800781 -11.4375 4.8125 C-10.56158203 4.34908203 -9.68566406 3.88566406 -8.78320312 3.40820312 C-2.26294413 0 -2.26294413 0 0 0 Z " fill="#D9904B" transform="translate(502,225)"/>
<path d="M0 0 C0 0.66 0 1.32 0 2 C-0.99 2 -1.98 2 -3 2 C-3.05800781 2.59425781 -3.11601563 3.18851563 -3.17578125 3.80078125 C-4.37072852 6.98919505 -6.21616606 7.62764993 -9.1875 9.1875 C-10.60095703 9.95126953 -10.60095703 9.95126953 -12.04296875 10.73046875 C-15.10575426 12.04540308 -17.67650841 12.76025733 -21 13 C-21.66 12.34 -22.32 11.68 -23 11 C-19.54515902 9.16002803 -16.0855752 7.32916118 -12.625 5.5 C-11.64015625 4.97535156 -10.6553125 4.45070313 -9.640625 3.91015625 C-8.22910156 3.16572266 -8.22910156 3.16572266 -6.7890625 2.40625 C-5.91975098 1.94541016 -5.05043945 1.48457031 -4.15478516 1.00976562 C-2 0 -2 0 0 0 Z " fill="#AB5434" transform="translate(704,653)"/>
<path d="M0 0 C7.18216433 2.27435204 14.0758202 5.03584181 21 8 C20.01 8.495 20.01 8.495 19 9 C18.53045739 12.04581269 18.53045739 12.04581269 18.375 15.5625 C18.30023437 16.76003906 18.22546875 17.95757813 18.1484375 19.19140625 C18.09945312 20.11824219 18.05046875 21.04507813 18 22 C17.67 22 17.34 22 17 22 C17 18.04 17 14.08 17 10 C15.35 9.67 13.7 9.34 12 9 C9.90234375 7.87890625 9.90234375 7.87890625 7.9375 6.5625 C5.35447512 4.84900825 2.7975545 3.33958623 0 2 C0 1.34 0 0.68 0 0 Z " fill="#DD7723" transform="translate(513,738)"/>
<path d="M0 0 C2 1 2 1 3 3 C1.35 3.33 -0.3 3.66 -2 4 C-4.09418468 12.34474765 -4.42087714 20.5518399 -4.625 29.125 C-4.66328301 30.4765848 -4.70234027 31.82814791 -4.7421875 33.1796875 C-4.83571054 36.45299391 -4.92146198 39.72630557 -5 43 C-5.33 43 -5.66 43 -6 43 C-6.02478423 38.24943417 -6.04289989 33.49890629 -6.05493164 28.74829102 C-6.05994942 27.13337549 -6.06676511 25.51846448 -6.07543945 23.90356445 C-6.08761714 21.57762535 -6.09325395 19.2517465 -6.09765625 16.92578125 C-6.10281754 16.20787918 -6.10797882 15.48997711 -6.11329651 14.75032043 C-6.11370876 11.03709768 -5.88944216 7.61008878 -5 4 C-4.34 4 -3.68 4 -3 4 C-3 3.34 -3 2.68 -3 2 C-2.01 1.34 -1.02 0.68 0 0 Z " fill="#BF4509" transform="translate(537,743)"/>
<path d="M0 0 C3.96 1.98 3.96 1.98 8 4 C8 4.33 8 4.66 8 5 C6.35 5.33 4.7 5.66 3 6 C2.17349095 12.00087244 1.7209101 17.95082054 1.4375 24 C1.39431641 24.87011719 1.35113281 25.74023438 1.30664062 26.63671875 C1.20175782 28.75768219 1.10049925 30.87882433 1 33 C0.67 33 0.34 33 0 33 C0 22.11 0 11.22 0 0 Z " fill="#B97443" transform="translate(201,395)"/>
<path d="M0 0 C5.87595665 0.47234378 10.12556852 2.99604517 15.125 5.875 C15.92292969 6.32230469 16.72085938 6.76960937 17.54296875 7.23046875 C21.21117192 9.30646353 24.66040576 11.41834113 28 14 C26.35 14 24.7 14 23 14 C23 13.34 23 12.68 23 12 C22.195625 11.938125 21.39125 11.87625 20.5625 11.8125 C15.81566186 10.72988779 12.14760866 8.48396526 8 6 C7.05125 5.46375 6.1025 4.9275 5.125 4.375 C3.12630271 3.08172528 1.59265921 1.76030755 0 0 Z " fill="#575C66" transform="translate(804,202)"/>
<path d="M0 0 C6.93032731 2.35136105 13.1163951 5.63127916 19.5 9.1875 C20.51320313 9.74630859 21.52640625 10.30511719 22.5703125 10.88085938 C25.04957048 12.24912911 27.52599805 13.62225665 30 15 C26.28125 16.1171875 26.28125 16.1171875 23.75 15.0625 C23.1725 14.711875 22.595 14.36125 22 14 C22 13.34 22 12.68 22 12 C20.8553125 11.7834375 20.8553125 11.7834375 19.6875 11.5625 C17 11 17 11 14 10 C14 9.34 14 8.68 14 8 C13.236875 7.855625 12.47375 7.71125 11.6875 7.5625 C9 7 9 7 6 6 C6 5.34 6 4.68 6 4 C5.071875 3.7834375 5.071875 3.7834375 4.125 3.5625 C2 3 2 3 0 2 C0 1.34 0 0.68 0 0 Z " fill="#D5A772" transform="translate(430,519)"/>
<path d="M0 0 C0 0.66 0 1.32 0 2 C-0.639375 2.103125 -1.27875 2.20625 -1.9375 2.3125 C-2.618125 2.539375 -3.29875 2.76625 -4 3 C-4.33 3.99 -4.66 4.98 -5 6 C-9.59639946 8.80622283 -14.65187565 10.45147443 -20 11 C-16.32043588 7.87961917 -12.56596709 5.51980912 -8.3125 3.25 C-7.17425781 2.63640625 -6.03601563 2.0228125 -4.86328125 1.390625 C-2 0 -2 0 0 0 Z " fill="#AB5F3E" transform="translate(724,642)"/>
<path d="M0 0 C0.66 0.33 1.32 0.66 2 1 C1 4 1 4 -0.6015625 5.02734375 C-1.26929688 5.32769531 -1.93703125 5.62804687 -2.625 5.9375 C-5.46288198 7.24963898 -8.10251829 8.65066083 -10.75 10.3125 C-14 12 -14 12 -16.203125 11.60546875 C-17.09257813 11.30576172 -17.09257813 11.30576172 -18 11 C-16.95199219 10.37351562 -15.90398438 9.74703125 -14.82421875 9.1015625 C-13.44528908 8.27608079 -12.06638412 7.4505578 -10.6875 6.625 C-9.99720703 6.2125 -9.30691406 5.8 -8.59570312 5.375 C-7.59506836 4.77558594 -7.59506836 4.77558594 -6.57421875 4.1640625 C-5.65515747 3.61419678 -5.65515747 3.61419678 -4.7175293 3.05322266 C-3.12072885 2.0740333 -1.55853114 1.03902076 0 0 Z " fill="#A85A3C" transform="translate(835,580)"/>
<path d="M0 0 C2.52919046 1.09581946 4.65268826 2.52717694 7 4 C7 4.33 7 4.66 7 5 C5.33388095 5.042721 3.66617115 5.04063832 2 5 C1.67 4.67 1.34 4.34 1 4 C-2.09023971 3.73512231 -4.10738098 4.03725463 -7.0625 5.0625 C-10.13601056 6.04340763 -11.04637358 5.90831952 -14 5 C-12.61217515 4.1533966 -11.21430603 3.32324661 -9.8125 2.5 C-9.03519531 2.0359375 -8.25789062 1.571875 -7.45703125 1.09375 C-4.68176282 -0.14166361 -3.00534316 -0.34677036 0 0 Z " fill="#B97542" transform="translate(533,210)"/>
<path d="M0 0 C2.31 0.33 4.62 0.66 7 1 C7 1.66 7 2.32 7 3 C8.32 3 9.64 3 11 3 C11 3.66 11 4.32 11 5 C12.65 5.33 14.3 5.66 16 6 C16 6.66 16 7.32 16 8 C16.66 8 17.32 8 18 8 C18.33 8.99 18.66 9.98 19 11 C14.60616294 9.40376856 10.71004193 7.21975667 6.6875 4.875 C6.04232422 4.50246094 5.39714844 4.12992188 4.73242188 3.74609375 C3.15324055 2.83367787 1.57638136 1.91724491 0 1 C0 0.67 0 0.34 0 0 Z " fill="#DA925C" transform="translate(229,704)"/>
<path d="M0 0 C0 2 0 2 -1.6875 3.7265625 C-8.69704407 9.48101928 -8.69704407 9.48101928 -13.5625 9.4375 C-14.696875 9.293125 -15.83125 9.14875 -17 9 C-13.94746898 6.59124922 -10.78648153 4.67456202 -7.375 2.8125 C-6.41335938 2.28269531 -5.45171875 1.75289062 -4.4609375 1.20703125 C-2 0 -2 0 0 0 Z " fill="#DE944F" transform="translate(519,216)"/>
<path d="M0 0 C-2.14543647 2.33327222 -4.2034808 3.80481335 -7.01171875 5.26171875 C-8.14770508 5.85629883 -8.14770508 5.85629883 -9.30664062 6.46289062 C-10.09232422 6.86701172 -10.87800781 7.27113281 -11.6875 7.6875 C-12.48478516 8.10322266 -13.28207031 8.51894531 -14.10351562 8.94726562 C-16.06646457 9.96987975 -18.03195562 10.9872368 -20 12 C-20.33 11.01 -20.66 10.02 -21 9 C-19.35 8.67 -17.7 8.34 -16 8 C-16 7.34 -16 6.68 -16 6 C-14.68 6 -13.36 6 -12 6 C-12 5.34 -12 4.68 -12 4 C-11.01 4 -10.02 4 -9 4 C-9 3.34 -9 2.68 -9 2 C-5.86501708 0.14223235 -3.62528568 -0.20140476 0 0 Z " fill="#BB5C3E" transform="translate(737,755)"/>
<path d="M0 0 C3 0.3125 3 0.3125 6 1 C6.33 1.66 6.66 2.32 7 3 C4.03 2.505 4.03 2.505 1 2 C0.67 10.25 0.34 18.5 0 27 C-0.33 27 -0.66 27 -1 27 C-1.02886537 22.68751391 -1.04675255 18.37505238 -1.0625 14.0625 C-1.07087891 12.83080078 -1.07925781 11.59910156 -1.08789062 10.33007812 C-1.09111328 9.16025391 -1.09433594 7.99042969 -1.09765625 6.78515625 C-1.10289307 5.70113525 -1.10812988 4.61711426 -1.11352539 3.50024414 C-1 1 -1 1 0 0 Z " fill="#D2804C" transform="translate(201,569)"/>
<path d="M0 0 C-0.33 1.32 -0.66 2.64 -1 4 C-1 3.01 -1 2.02 -1 1 C-1.845625 1.45375 -2.69125 1.9075 -3.5625 2.375 C-8.50545905 4.71167155 -12.63497049 6.63996535 -18 5 C-16.13591458 3.95936979 -14.25814929 2.94322085 -12.375 1.9375 C-11.33085938 1.36902344 -10.28671875 0.80054688 -9.2109375 0.21484375 C-5.59460823 -1.15337815 -3.68999673 -0.96959374 0 0 Z " fill="#9E5335" transform="translate(859,572)"/>
<path d="M0 0 C4.84015316 1.76534644 9.2835127 4.19536725 13.8125 6.625 C14.60076172 7.04523438 15.38902344 7.46546875 16.20117188 7.8984375 C18.13535326 8.9300009 20.06823983 9.96391172 22 11 C22 11.33 22 11.66 22 12 C16.92387682 12.61528766 14.17017994 10.61658349 10 8 C10 7.34 10 6.68 10 6 C7.69 5.67 5.38 5.34 3 5 C3 4.01 3 3.02 3 2 C2.01 2 1.02 2 0 2 C0 1.34 0 0.68 0 0 Z " fill="#DBAD78" transform="translate(364,483)"/>
<path d="M0 0 C4.91283626 2.05491864 9.6884415 4.28030527 14.4375 6.6875 C15.07365234 7.00783203 15.70980469 7.32816406 16.36523438 7.65820312 C17.91109357 8.43694422 19.45568387 9.21820334 21 10 C19.02 10.99 19.02 10.99 17 12 C16.67 11.34 16.34 10.68 16 10 C13.67328146 9.31060191 11.33932406 8.64533078 9 8 C8.01 7.34 7.02 6.68 6 6 C6 5.34 6 4.68 6 4 C4.35 3.67 2.7 3.34 1 3 C0.67 2.01 0.34 1.02 0 0 Z " fill="#D89658" transform="translate(418,687)"/>
<path d="M0 0 C2.58587003 1.26587358 5.16865501 2.53745849 7.75 3.8125 C8.47960937 4.16892578 9.20921875 4.52535156 9.9609375 4.89257812 C13.55910218 6.67530517 16.89632709 8.41088339 20 11 C16.0507432 10.44894091 12.65079826 9.61064629 9 8 C9 7.34 9 6.68 9 6 C6.03 5.01 3.06 4.02 0 3 C0 2.01 0 1.02 0 0 Z " fill="#D38F4D" transform="translate(363,657)"/>
<path d="M0 0 C4.53847198 1.34927545 8.31932246 3.19159348 12.375 5.625 C13.43460937 6.25664063 14.49421875 6.88828125 15.5859375 7.5390625 C16.38257813 8.02117188 17.17921875 8.50328125 18 9 C17.01 9.66 16.02 10.32 15 11 C14.01 10.34 13.02 9.68 12 9 C12 8.34 12 7.68 12 7 C7.545 6.01 7.545 6.01 3 5 C3 4.34 3 3.68 3 3 C2.01 2.67 1.02 2.34 0 2 C0 1.34 0 0.68 0 0 Z " fill="#D28B4C" transform="translate(322,634)"/>
<path d="M0 0 C-0.97231882 3.59757962 -1.59555803 4.76261015 -4.875 6.6875 C-5.90625 7.120625 -6.9375 7.55375 -8 8 C-8.7425 8.4125 -9.485 8.825 -10.25 9.25 C-10.8275 9.4975 -11.405 9.745 -12 10 C-12.66 9.67 -13.32 9.34 -14 9 C-12.35 8.34 -10.7 7.68 -9 7 C-9 6.01 -9 5.02 -9 4 C-2.25 0 -2.25 0 0 0 Z " fill="#DB8436" transform="translate(478,238)"/>
<path d="M0 0 C-0.33 1.32 -0.66 2.64 -1 4 C-3.97 4.66 -6.94 5.32 -10 6 C-10 6.66 -10 7.32 -10 8 C-11.65 8 -13.3 8 -15 8 C-12.61753661 5.31874582 -10.1454496 3.88576541 -6.9375 2.3125 C-5.62072266 1.65701172 -5.62072266 1.65701172 -4.27734375 0.98828125 C-2 0 -2 0 0 0 Z " fill="#AE5C3F" transform="translate(663,675)"/>
<path d="M0 0 C4.19469571 0.59924224 8.00999834 1.57499941 12 3 C12 3.66 12 4.32 12 5 C12.99 5 13.98 5 15 5 C15.33 6.32 15.66 7.64 16 9 C12.20950293 7.57250019 8.72877544 5.83763458 5.1875 3.875 C4.21167969 3.33617187 3.23585938 2.79734375 2.23046875 2.2421875 C1.49441406 1.83226562 0.75835938 1.42234375 0 1 C0 0.67 0 0.34 0 0 Z " fill="#DA884A" transform="translate(512,326)"/>
<path d="M0 0 C2.64 0.33 5.28 0.66 8 1 C8 1.66 8 2.32 8 3 C9.32 3 10.64 3 12 3 C12 3.66 12 4.32 12 5 C12.99 5 13.98 5 15 5 C15 5.99 15 6.98 15 8 C9.52067211 6.45454854 4.88570819 3.84456788 0 1 C0 0.67 0 0.34 0 0 Z " fill="#DD9561" transform="translate(316,752)"/>
<path d="M0 0 C-0.78375 0.61875 -1.5675 1.2375 -2.375 1.875 C-4.96837647 3.89858661 -4.96837647 3.89858661 -7 6 C-9.1640625 6.4140625 -9.1640625 6.4140625 -11.625 6.625 C-12.44226563 6.69976563 -13.25953125 6.77453125 -14.1015625 6.8515625 C-14.72804688 6.90054688 -15.35453125 6.94953125 -16 7 C-13.62905707 4.34828752 -11.16431913 2.8509948 -8 1.25 C-7.13375 0.80140625 -6.2675 0.3528125 -5.375 -0.109375 C-3 -1 -3 -1 0 0 Z " fill="#AC5D42" transform="translate(612,704)"/>
<path d="M0 0 C0.66 0.33 1.32 0.66 2 1 C-0.875 5.875 -0.875 5.875 -2 7 C-3.51928038 7.07179964 -5.04167482 7.08392007 -6.5625 7.0625 C-7.38878906 7.05347656 -8.21507812 7.04445313 -9.06640625 7.03515625 C-9.70449219 7.02355469 -10.34257813 7.01195312 -11 7 C-7.53252172 4.22601737 -3.93597489 2.04087587 0 0 Z " fill="#AD5839" transform="translate(674,668)"/>
<path d="M0 0 C2.31 0.33 4.62 0.66 7 1 C7 1.66 7 2.32 7 3 C8.65 3 10.3 3 12 3 C12.33 3.99 12.66 4.98 13 6 C13.66 6 14.32 6 15 6 C15.33 6.99 15.66 7.98 16 9 C12.20950293 7.57250019 8.72877544 5.83763458 5.1875 3.875 C4.21167969 3.33617187 3.23585938 2.79734375 2.23046875 2.2421875 C1.49441406 1.83226562 0.75835937 1.42234375 0 1 C0 0.67 0 0.34 0 0 Z " fill="#E69E62" transform="translate(511,857)"/>
<path d="M0 0 C2.25256041 1.0991772 4.50198174 2.20410211 6.75 3.3125 C7.38421875 3.62123047 8.0184375 3.92996094 8.671875 4.24804688 C12.03147912 5.910351 15.09858921 7.61879165 18 10 C15 11 15 11 13.2824707 10.3190918 C12.66976318 9.94953369 12.05705566 9.57997559 11.42578125 9.19921875 C10.42514648 8.59883789 10.42514648 8.59883789 9.40429688 7.98632812 C8.71400391 7.55771484 8.02371094 7.12910156 7.3125 6.6875 C6.61060547 6.27048828 5.90871094 5.85347656 5.18554688 5.42382812 C3.41674482 4.34604495 1.70285459 3.17922157 0 2 C0 1.34 0 0.68 0 0 Z " fill="#D4A371" transform="translate(386,495)"/>
<path d="M0 0 C-0.19921875 1.85546875 -0.19921875 1.85546875 -1 4 C-3.14453125 5.30078125 -3.14453125 5.30078125 -5.8125 6.3125 C-6.68519531 6.65925781 -7.55789063 7.00601563 -8.45703125 7.36328125 C-11.12434443 8.03113386 -12.44886782 7.92173773 -15 7 C-12.87767021 5.82823482 -10.75242209 4.66245215 -8.625 3.5 C-7.72007812 2.99919922 -7.72007812 2.99919922 -6.796875 2.48828125 C-2.2265625 0 -2.2265625 0 0 0 Z " fill="#AF6445" transform="translate(648,683)"/>
<path d="M0 0 C4.8274799 1.41292095 8.7162359 3.42974154 13 6 C12.01 6.99 11.02 7.98 10 9 C8.51444617 8.07265428 7.03672494 7.13275187 5.5625 6.1875 C4.73878906 5.66542969 3.91507812 5.14335938 3.06640625 4.60546875 C1 3 1 3 0 0 Z " fill="#D78842" transform="translate(343,646)"/>
<path d="M0 0 C2.6274838 1.28680869 5.25196683 2.57917678 7.875 3.875 C8.62136719 4.23980469 9.36773437 4.60460937 10.13671875 4.98046875 C10.85214844 5.33496094 11.56757813 5.68945312 12.3046875 6.0546875 C12.96452637 6.37937012 13.62436523 6.70405273 14.30419922 7.03857422 C16 8 16 8 18 10 C14.70502527 10.37656854 13.37903909 10.28684039 10.6875 8.25 C9.800625 7.5075 8.91375 6.765 8 6 C5.3845261 4.55563382 2.70715721 3.2628922 0 2 C0 1.34 0 0.68 0 0 Z " fill="#D3A570" transform="translate(232,411)"/>
<path d="M0 0 C4.3177458 0.50797009 8.03302114 1.19682779 12 3 C12 3.66 12 4.32 12 5 C12.99 5 13.98 5 15 5 C15.33 5.99 15.66 6.98 16 8 C10.04675579 6.60668753 5.24258516 4.11464243 0 1 C0 0.67 0 0.34 0 0 Z " fill="#DC9054" transform="translate(424,280)"/>
<path d="M0 0 C0.66 0.33 1.32 0.66 2 1 C-0.24709963 5.34439262 -3.5555126 6.16327748 -7.94140625 7.58203125 C-10 8 -10 8 -12 7 C-10.04754815 5.80285445 -8.08785003 4.61751926 -6.125 3.4375 C-5.03445313 2.77621094 -3.94390625 2.11492188 -2.8203125 1.43359375 C-1.88960937 0.96050781 -0.95890625 0.48742187 0 0 Z " fill="#AF6647" transform="translate(571,724)"/>
<path d="M0 0 C0.66 0.33 1.32 0.66 2 1 C-1.36132396 4.65791137 -4.329378 7.21125115 -9 9 C-11.18359375 8.5703125 -11.18359375 8.5703125 -13 8 C-10.880788 6.63594382 -8.75551882 5.28368225 -6.625 3.9375 C-6.02171875 3.54755859 -5.4184375 3.15761719 -4.796875 2.75585938 C-3.23507443 1.77539568 -1.62007786 0.88083925 0 0 Z " fill="#AF6647" transform="translate(590,713)"/>
<path d="M0 0 C3.89608498 1.48904175 7.59097018 3.24378713 11.3125 5.125 C12.38113281 5.66382813 13.44976562 6.20265625 14.55078125 6.7578125 C15.76314453 7.37269531 15.76314453 7.37269531 17 8 C17 8.33 17 8.66 17 9 C15.35 9 13.7 9 12 9 C12 8.34 12 7.68 12 7 C10.68 7 9.36 7 8 7 C8 6.34 8 5.68 8 5 C7.05125 4.9175 6.1025 4.835 5.125 4.75 C2 4 2 4 0.625 1.9375 C0.41875 1.298125 0.2125 0.65875 0 0 Z " fill="#D69354" transform="translate(439,698)"/>
<path d="M0 0 C1.2065625 0.0309375 1.2065625 0.0309375 2.4375 0.0625 C-0.06308918 2.97274202 -2.75905377 4.23041164 -6.25 5.75 C-7.24386719 6.18699219 -8.23773437 6.62398438 -9.26171875 7.07421875 C-10.02097656 7.40035156 -10.78023437 7.72648437 -11.5625 8.0625 C-11.5625 6.7425 -11.5625 5.4225 -11.5625 4.0625 C-10.99660156 3.85753906 -10.43070313 3.65257812 -9.84765625 3.44140625 C-9.11417969 3.17199219 -8.38070312 2.90257812 -7.625 2.625 C-6.89410156 2.35816406 -6.16320312 2.09132813 -5.41015625 1.81640625 C-1.01948925 0.02486559 -1.01948925 0.02486559 0 0 Z " fill="#424845" transform="translate(615.5625,464.9375)"/>
<path d="M0 0 C3.68266103 0.59950296 7.34543185 1.24758891 11 2 C11 2.66 11 3.32 11 4 C12.45833358 5.62514468 12.45833358 5.62514468 14 7 C10.27792613 7 8.53604411 5.82035432 5.3125 4 C4.31863281 3.443125 3.32476562 2.88625 2.30078125 2.3125 C1.54152344 1.879375 0.78226562 1.44625 0 1 C0 0.67 0 0.34 0 0 Z " fill="#DE9B5F" transform="translate(485,843)"/>
<path d="M0 0 C7.92 3.96 7.92 3.96 16 8 C11.23374833 9.19156292 10.12120649 8.3415946 6 6 C6 5.34 6 4.68 6 4 C4.35 3.67 2.7 3.34 1 3 C0.67 2.01 0.34 1.02 0 0 Z " fill="#CC8748" transform="translate(474,717)"/>
<path d="M0 0 C5.68502535 1.64566523 10.76681636 4.29032784 16 7 C13.04893565 8.25348607 12.02593537 8.01044806 8.984375 6.78515625 C7.91703125 6.21667969 6.8496875 5.64820313 5.75 5.0625 C4.67234375 4.49660156 3.5946875 3.93070313 2.484375 3.34765625 C1.66453125 2.90292969 0.8446875 2.45820312 0 2 C0 1.34 0 0.68 0 0 Z " fill="#D0A16C" transform="translate(485,548)"/>
<path d="M0 0 C3.92130921 0.78426184 7.4420035 2.18743574 11 4 C11.9375 6.1875 11.9375 6.1875 12 8 C7.69235185 6.43358249 3.93828536 4.31663844 0 2 C0 1.34 0 0.68 0 0 Z " fill="#DB8C4B" transform="translate(452,293)"/>
<path d="M0 0 C1.98 0 3.96 0 6 0 C3.07096942 2.33364352 0.11431797 4.04960836 -3.25 5.6875 C-4.58804688 6.34298828 -4.58804688 6.34298828 -5.953125 7.01171875 C-6.62859375 7.33785156 -7.3040625 7.66398438 -8 8 C-8.33 7.01 -8.66 6.02 -9 5 C-7.68 5 -6.36 5 -5 5 C-5 4.34 -5 3.68 -5 3 C-3.68 3 -2.36 3 -1 3 C-0.67 2.01 -0.34 1.02 0 0 Z " fill="#BB5D46" transform="translate(617,817)"/>
<path d="M0 0 C5.23272633 1.63958758 10.15196636 3.38952035 15 6 C15 6.33 15 6.66 15 7 C9.22621075 6.5188509 5.04140164 4.81532819 0 2 C0 1.34 0 0.68 0 0 Z " fill="#D5904C" transform="translate(513,738)"/>
<path d="M0 0 C6.16356805 1.6658292 11.48259656 4.87805286 17 8 C17 8.33 17 8.66 17 9 C12.75776898 9.3636198 10.41831915 8.5393228 7 6 C7 5.34 7 4.68 7 4 C4.03 3.505 4.03 3.505 1 3 C0.67 2.01 0.34 1.02 0 0 Z " fill="#D8A974" transform="translate(413,510)"/>
<path d="M0 0 C4.49797113 1.68673918 8.72886302 3.81673892 13 6 C12.67 6.66 12.34 7.32 12 8 C9.69 7.34 7.38 6.68 5 6 C5 5.34 5 4.68 5 4 C2.525 3.01 2.525 3.01 0 2 C0 1.34 0 0.68 0 0 Z " fill="#D59F6B" transform="translate(287,441)"/>
<path d="M0 0 C5.13604912 1.7410336 8.92000285 3.30250259 13 7 C11.35 7.33 9.7 7.66 8 8 C8 7.34 8 6.68 8 6 C5.525 5.01 5.525 5.01 3 4 C3 3.34 3 2.68 3 2 C2.01 2 1.02 2 0 2 C0 1.34 0 0.68 0 0 Z " fill="#D9904D" transform="translate(280,611)"/>
<path d="M0 0 C0 0.66 0 1.32 0 2 C-0.99 2.66 -1.98 3.32 -3 4 C-3.33 4.66 -3.66 5.32 -4 6 C-6.25 6.5625 -6.25 6.5625 -9 7 C-9.928125 7.185625 -10.85625 7.37125 -11.8125 7.5625 C-12.534375 7.706875 -13.25625 7.85125 -14 8 C-11.72402354 5.50447597 -9.39278822 3.93377014 -6.4375 2.3125 C-5.65246094 1.87550781 -4.86742187 1.43851563 -4.05859375 0.98828125 C-2 0 -2 0 0 0 Z " fill="#646E70" transform="translate(270,193)"/>
<path d="M0 0 C-0.66 1.65 -1.32 3.3 -2 5 C-6.455 5.495 -6.455 5.495 -11 6 C-7.92832129 2.92832129 -4.55956968 0 0 0 Z " fill="#61696C" transform="translate(361,143)"/>
<path d="M0 0 C-0.33 1.32 -0.66 2.64 -1 4 C-7.96428571 6.27678571 -7.96428571 6.27678571 -12 5 C-10.37750059 4.16180842 -8.75191503 3.3295884 -7.125 2.5 C-6.22007812 2.0359375 -5.31515625 1.571875 -4.3828125 1.09375 C-2 0 -2 0 0 0 Z " fill="#AA5B3D" transform="translate(551,737)"/>
<path d="M0 0 C0.99 0.33 1.98 0.66 3 1 C2 4 2 4 -1 6 C-3.33199388 6.07905064 -5.66832622 6.08798769 -8 6 C-7.67 5.01 -7.34 4.02 -7 3 C-4.69 3 -2.38 3 0 3 C0 2.01 0 1.02 0 0 Z " fill="#2B3230" transform="translate(708,413)"/>
<path d="M0 0 C0.66 0.99 1.32 1.98 2 3 C-1.79692186 5.82561627 -4.18569279 7.56638908 -9 7 C-7.6875 5.5 -7.6875 5.5 -6 4 C-5.01 4 -4.02 4 -3 4 C-3 3.01 -3 2.02 -3 1 C-2.01 0.67 -1.02 0.34 0 0 Z " fill="#262C2D" transform="translate(819,352)"/>
<path d="M0 0 C0 0.66 0 1.32 0 2 C-0.66 2 -1.32 2 -2 2 C-2 2.66 -2 3.32 -2 4 C-4.90600261 5.25664978 -6.79604584 6 -10 6 C-10 6.66 -10 7.32 -10 8 C-11.32 7.67 -12.64 7.34 -14 7 C-12.04480616 5.82807953 -10.0857461 4.6626071 -8.125 3.5 C-7.03445313 2.8503125 -5.94390625 2.200625 -4.8203125 1.53125 C-2 0 -2 0 0 0 Z " fill="#E59E5F" transform="translate(435,262)"/>
<path d="M0 0 C4.97209562 1.76429199 9.43438061 4.3939166 14 7 C13.67 7.66 13.34 8.32 13 9 C12.01 9 11.02 9 10 9 C10 8.34 10 7.68 10 7 C9.34 7 8.68 7 8 7 C8 6.34 8 5.68 8 5 C6.68 5 5.36 5 4 5 C4 4.34 4 3.68 4 3 C2.68 2.67 1.36 2.34 0 2 C0 1.34 0 0.68 0 0 Z " fill="#C17747" transform="translate(592,244)"/>
<path d="M0 0 C0.66 0.33 1.32 0.66 2 1 C-0.68831091 4.32085466 -4.12191412 5.42003908 -8 7 C-8.33 7.33 -8.66 7.66 -9 8 C-10.66617115 8.04063832 -12.33388095 8.042721 -14 8 C-11.10181338 5.70841058 -8.16859456 3.92137634 -4.875 2.25 C-4.00617188 1.80140625 -3.13734375 1.3528125 -2.2421875 0.890625 C-1.50226563 0.59671875 -0.76234375 0.3028125 0 0 Z " fill="#636B6C" transform="translate(332,158)"/>
<path d="M0 0 C-2.125 2.5625 -2.125 2.5625 -5 5 C-8.3125 4.8125 -8.3125 4.8125 -11 4 C-4.14893617 -1.38297872 -4.14893617 -1.38297872 0 0 Z " fill="#AA522F" transform="translate(808,598)"/>
<path d="M0 0 C2 1 2 1 3 3 C1.35 3.33 -0.3 3.66 -2 4 C-2.66 7.3 -3.32 10.6 -4 14 C-4.33 14 -4.66 14 -5 14 C-5 10.7 -5 7.4 -5 4 C-4.34 4 -3.68 4 -3 4 C-3 3.34 -3 2.68 -3 2 C-2.01 1.34 -1.02 0.68 0 0 Z " fill="#A7421A" transform="translate(537,743)"/>
<path d="M0 0 C0.33 0 0.66 0 1 0 C1 9.24 1 18.48 1 28 C0.67 28 0.34 28 0 28 C0 18.76 0 9.52 0 0 Z " fill="#FDF9FA" transform="translate(0,580)"/>
<path d="M0 0 C5.4556837 2.12405077 10.81634671 4.27176143 16 7 C12.11359243 8.29546919 11.05826625 7.37029611 7.4375 5.625 C6.46683594 5.16351562 5.49617187 4.70203125 4.49609375 4.2265625 C2.99511747 3.48899356 1.4958443 2.74792215 0 2 C0 1.34 0 0.68 0 0 Z " fill="#D4A36B" transform="translate(511,561)"/>
<path d="M0 0 C0.33 1.32 0.66 2.64 1 4 C-2.72965139 6.03435531 -4.66905042 7 -9 7 C-8.67 6.01 -8.34 5.02 -8 4 C-7.236875 3.896875 -6.47375 3.79375 -5.6875 3.6875 C-2.82940576 2.95635961 -1.84257115 2.23048087 0 0 Z " fill="#282C2B" transform="translate(762,384)"/>
<path d="M0 0 C0.33 0 0.66 0 1 0 C1 9.24 1 18.48 1 28 C0.67 28 0.34 28 0 28 C0 18.76 0 9.52 0 0 Z " fill="#FCF9FA" transform="translate(0,208)"/>
<path d="M0 0 C5.625 -0.25 5.625 -0.25 9 2 C9 2.66 9 3.32 9 4 C9.66 4 10.32 4 11 4 C11 4.66 11 5.32 11 6 C6.95743617 4.77782954 3.50711041 3.37245704 0 1 C0 0.67 0 0.34 0 0 Z " fill="#E0985E" transform="translate(359,775)"/>
<path d="M0 0 C2.64 0.33 5.28 0.66 8 1 C8 1.66 8 2.32 8 3 C8.99 3 9.98 3 11 3 C11 3.99 11 4.98 11 6 C6.95743617 4.77782954 3.50711041 3.37245704 0 1 C0 0.67 0 0.34 0 0 Z " fill="#DD945B" transform="translate(283,734)"/>
<path d="M0 0 C-3.56600568 3.25135812 -6.12135417 4.7831713 -11 5 C-11.66 4.34 -12.32 3.68 -13 3 C-4.03773585 -2.01886792 -4.03773585 -2.01886792 0 0 Z " fill="#A83F1F" transform="translate(824,591)"/>
<path d="M0 0 C0 0.66 0 1.32 0 2 C-3.85756507 4.15305957 -6.55129785 5.39253254 -11 5 C-8.00399436 0.50599154 -5.30375828 0 0 0 Z " fill="#242A2F" transform="translate(645,450)"/>
<path d="M0 0 C9.59453303 2.89066059 9.59453303 2.89066059 13 6 C5.57142857 5 5.57142857 5 2 4 C2 3.34 2 2.68 2 2 C1.34 2 0.68 2 0 2 C0 1.34 0 0.68 0 0 Z " fill="#D6A571" transform="translate(219,405)"/>
<path d="M0 0 C1.98 0.99 3.96 1.98 6 3 C6 3.33 6 3.66 6 4 C4.35 4.33 2.7 4.66 1 5 C0.67 7.64 0.34 10.28 0 13 C-0.33 13 -0.66 13 -1 13 C-1.02696365 11.20841511 -1.04637917 9.41671527 -1.0625 7.625 C-1.07410156 6.62726563 -1.08570313 5.62953125 -1.09765625 4.6015625 C-1 2 -1 2 0 0 Z " fill="#C5824D" transform="translate(203,396)"/>
<path d="M0 0 C4.84659077 0.59104765 8.60748167 1.97944157 13 4 C12.67 4.66 12.34 5.32 12 6 C10.55903414 5.57405412 9.12231288 5.13373367 7.6875 4.6875 C6.88699219 4.44386719 6.08648437 4.20023437 5.26171875 3.94921875 C2.90035427 2.95817977 1.66120007 1.91925057 0 0 Z " fill="#DA9253" transform="translate(487,313)"/>
<path d="M0 0 C1.32 0.33 2.64 0.66 4 1 C2.37829621 2.00533667 0.75252763 3.00411907 -0.875 4 C-2.23238281 4.8353125 -2.23238281 4.8353125 -3.6171875 5.6875 C-6 7 -6 7 -8 7 C-8 6.01 -8 5.02 -8 4 C-5.09399739 2.74335022 -3.20395416 2 0 2 C0 1.34 0 0.68 0 0 Z " fill="#676F6D" transform="translate(340,249)"/>
<path d="M0 0 C3 1 3 1 4 3 C-0.75 6 -0.75 6 -3 6 C-2.625 3.5625 -2.625 3.5625 -2 1 C-1.34 0.67 -0.68 0.34 0 0 Z " fill="#BD5030" transform="translate(566,844)"/>
<path d="M0 0 C1.32 0 2.64 0 4 0 C4.33 0.99 4.66 1.98 5 3 C1.535 4.485 1.535 4.485 -2 6 C-1.125 1.125 -1.125 1.125 0 0 Z " fill="#BE4A2E" transform="translate(698,772)"/>
<path d="M0 0 C0.33 0 0.66 0 1 0 C1.33 4.29 1.66 8.58 2 13 C1.01 13.66 0.02 14.32 -1 15 C-1.66 14.34 -2.32 13.68 -3 13 C-2.34 13 -1.68 13 -1 13 C-0.67 8.71 -0.34 4.42 0 0 Z " fill="#C6A587" transform="translate(531,673)"/>
<path d="M0 0 C-0.1875 1.875 -0.1875 1.875 -1 4 C-3.63678659 5.49655455 -5.16532951 6.17595756 -8.16796875 5.54296875 C-8.77253906 5.36378906 -9.37710938 5.18460938 -10 5 C-8.71186658 4.16121545 -7.41936744 3.32913217 -6.125 2.5 C-5.40570312 2.0359375 -4.68640625 1.571875 -3.9453125 1.09375 C-2 0 -2 0 0 0 Z " fill="#B05F3F" transform="translate(797,602)"/>
<path d="M0 0 C1.32 0.66 2.64 1.32 4 2 C2.73461631 2.84158536 1.46246221 3.67299748 0.1875 4.5 C-0.87404297 5.19609375 -0.87404297 5.19609375 -1.95703125 5.90625 C-4 7 -4 7 -7 7 C-7 6.34 -7 5.68 -7 5 C-5.68 5 -4.36 5 -3 5 C-2.67 4.01 -2.34 3.02 -2 2 C-1.34 2 -0.68 2 0 2 C0 1.34 0 0.68 0 0 Z " fill="#4B4D42" transform="translate(780,374)"/>
<path d="M0 0 C1.375 2.5625 1.375 2.5625 2 5 C-1.91211733 3.84414715 -4.8745041 2.64465038 -8 0 C-5.01122021 -1.4943899 -3.14997454 -0.91874257 0 0 Z " fill="#4C5A62" transform="translate(734,258)"/>
<path d="M0 0 C1.98 0 3.96 0 6 0 C6.33 0.99 6.66 1.98 7 3 C9.01508358 3.73323796 9.01508358 3.73323796 11 4 C9.4375 4.75 9.4375 4.75 7 5 C4.49713591 3.86915563 2.32992278 2.47860484 0 1 C0 0.67 0 0.34 0 0 Z " fill="#DD9559" transform="translate(398,796)"/>
<path d="M0 0 C1.32 0.66 2.64 1.32 4 2 C2.54462432 2.83848804 1.08559627 3.67063934 -0.375 4.5 C-1.59316406 5.19609375 -1.59316406 5.19609375 -2.8359375 5.90625 C-5 7 -5 7 -7 7 C-7 6.34 -7 5.68 -7 5 C-6.01 5 -5.02 5 -4 5 C-4 4.34 -4 3.68 -4 3 C-2 1.375 -2 1.375 0 0 Z " fill="#C06954" transform="translate(691,777)"/>
<path d="M0 0 C-2.64 1.65 -5.28 3.3 -8 5 C-8.66 4.34 -9.32 3.68 -10 3 C-6.86618053 -0.60389239 -4.59270471 -1.53090157 0 0 Z " fill="#A64120" transform="translate(601,711)"/>
<path d="M0 0 C3.96 1.98 7.92 3.96 12 6 C9.3333581 7.33332095 7.83319697 6.67102033 5 6 C5 5.34 5 4.68 5 4 C4.360625 3.896875 3.72125 3.79375 3.0625 3.6875 C2.381875 3.460625 1.70125 3.23375 1 3 C0.67 2.01 0.34 1.02 0 0 Z " fill="#D49557" transform="translate(456,707)"/>
<path d="M0 0 C3.7910119 1.44950455 7.3874638 3.15172566 11 5 C7.96929372 6.28222189 6.96403086 5.98589446 3.8125 4.75 C1 3 1 3 0 0 Z " fill="#D08C50" transform="translate(392,673)"/>
<path d="M0 0 C3.3 1.65 6.6 3.3 10 5 C10 5.33 10 5.66 10 6 C8.02 6 6.04 6 4 6 C4 5.34 4 4.68 4 4 C3.01 4 2.02 4 1 4 C0.67 2.68 0.34 1.36 0 0 Z " fill="#D38644" transform="translate(244,591)"/>
<path d="M0 0 C4.30764815 1.56641751 8.06171464 3.68336156 12 6 C9 7 9 7 6.73828125 6.00390625 C5.93777344 5.52824219 5.13726562 5.05257813 4.3125 4.5625 C3.50425781 4.08941406 2.69601562 3.61632812 1.86328125 3.12890625 C1.24839844 2.75636719 0.63351562 2.38382812 0 2 C0 1.34 0 0.68 0 0 Z " fill="#D3A16C" transform="translate(256,424)"/>
<path d="M0 0 C0.33 0 0.66 0 1 0 C1 7.92 1 15.84 1 24 C0.67 24 0.34 24 0 24 C0 16.08 0 8.16 0 0 Z " fill="#FCFAFA" transform="translate(0,416)"/>
<path d="M0 0 C0 0.66 0 1.32 0 2 C-0.99 2 -1.98 2 -3 2 C-3.33 3.32 -3.66 4.64 -4 6 C-6.31 6 -8.62 6 -11 6 C-3.8 0 -3.8 0 0 0 Z " fill="#606769" transform="translate(410,117)"/>
<path d="M0 0 C0.33 0 0.66 0 1 0 C1 2.31 1 4.62 1 7 C5.95 7 10.9 7 16 7 C16 7.33 16 7.66 16 8 C10.72 8 5.44 8 0 8 C0 5.36 0 2.72 0 0 Z " fill="#F9FDFE" transform="translate(0,1016)"/>
<path d="M0 0 C2.97 0.33 5.94 0.66 9 1 C9 2.32 9 3.64 9 5 C4.89198233 3.81323934 3.10551666 3.10551666 0 0 Z " fill="#D68E54" transform="translate(435,816)"/>
<path d="M0 0 C2.31 0 4.62 0 7 0 C7 0.99 7 1.98 7 3 C7.66 3 8.32 3 9 3 C9 3.66 9 4.32 9 5 C5.22454612 3.90931332 2.52956528 3.0916909 0 0 Z " fill="#E09961" transform="translate(307,747)"/>
<path d="M0 0 C4.05281712 1.22527029 7.44360764 2.69880494 11 5 C10.67 5.66 10.34 6.32 10 7 C7.525 6.01 7.525 6.01 5 5 C5 4.34 5 3.68 5 3 C3.68 3 2.36 3 1 3 C0.67 2.01 0.34 1.02 0 0 Z " fill="#D38B50" transform="translate(491,726)"/>
<path d="M0 0 C3.7910119 1.44950455 7.3874638 3.15172566 11 5 C11 5.33 11 5.66 11 6 C3.25531915 5.25531915 3.25531915 5.25531915 0 2 C0 1.34 0 0.68 0 0 Z " fill="#D3A26F" transform="translate(303,450)"/>
<path d="M0 0 C1.32 0.33 2.64 0.66 4 1 C2.71475739 1.86380259 1.42157581 2.71580369 0.125 3.5625 C-0.59429688 4.03816406 -1.31359375 4.51382812 -2.0546875 5.00390625 C-2.69664062 5.33261719 -3.33859375 5.66132813 -4 6 C-6 5 -6 5 -7 2 C-4.69 2 -2.38 2 0 2 C0 1.34 0 0.68 0 0 Z " fill="#E58D54" transform="translate(551,323)"/>
<path d="M0 0 C1.32 0.33 2.64 0.66 4 1 C2.54462432 1.83848804 1.08559627 2.67063934 -0.375 3.5 C-1.59316406 4.19609375 -1.59316406 4.19609375 -2.8359375 4.90625 C-5 6 -5 6 -7 6 C-7 5.34 -7 4.68 -7 4 C-6.34 4 -5.68 4 -5 4 C-5 3.34 -5 2.68 -5 2 C-3.35 2 -1.7 2 0 2 C0 1.34 0 0.68 0 0 Z " fill="#BB6349" transform="translate(711,767)"/>
<path d="M0 0 C2.75 -0.3125 2.75 -0.3125 6 0 C8.375 2.5 8.375 2.5 10 5 C6.05140217 4.4359146 3.29120954 3.2568294 0 1 C0 0.67 0 0.34 0 0 Z " fill="#DB975E" transform="translate(204,691)"/>
<path d="M0 0 C4.23429756 1.31061591 8.07407404 2.94356259 12 5 C12 5.33 12 5.66 12 6 C6.92387682 6.61528766 4.17017994 4.61658349 0 2 C0 1.34 0 0.68 0 0 Z " fill="#D69A5E" transform="translate(310,628)"/>
<path d="M0 0 C2.203125 0.9140625 2.203125 0.9140625 4 2 C2.71086513 2.67154933 1.41859796 3.33708859 0.125 4 C-0.59429688 4.37125 -1.31359375 4.7425 -2.0546875 5.125 C-4 6 -4 6 -6 6 C-6 5.01 -6 4.02 -6 3 C-3.25 1.375 -3.25 1.375 0 0 Z " fill="#434A4F" transform="translate(633,454)"/>
<path d="M0 0 C-4.625 4 -4.625 4 -8 4 C-8 3.01 -8 2.02 -8 1 C-4.93251126 -0.86240388 -3.40254489 -1.2151946 0 0 Z " fill="#24292A" transform="translate(752,393)"/>
<path d="M0 0 C0.66 0.33 1.32 0.66 2 1 C0.68 1.33 -0.64 1.66 -2 2 C-2 2.99 -2 3.98 -2 5 C-3.875 5.625 -3.875 5.625 -6 6 C-6.66 5.34 -7.32 4.68 -8 4 C-6.71349294 3.30289269 -5.42059335 2.61757124 -4.125 1.9375 C-3.40570312 1.55464844 -2.68640625 1.17179687 -1.9453125 0.77734375 C-1.30335938 0.52082031 -0.66140625 0.26429688 0 0 Z " fill="#435253" transform="translate(726,291)"/>
<path d="M0 0 C0.99 0.33 1.98 0.66 3 1 C2 3 2 3 -0.06640625 3.8515625 C-1.30197266 4.23441406 -1.30197266 4.23441406 -2.5625 4.625 C-3.38878906 4.88539063 -4.21507812 5.14578125 -5.06640625 5.4140625 C-5.70449219 5.60742188 -6.34257813 5.80078125 -7 6 C-7 5.34 -7 4.68 -7 4 C-6.34 4 -5.68 4 -5 4 C-5 3.34 -5 2.68 -5 2 C-3.35 2 -1.7 2 0 2 C0 1.34 0 0.68 0 0 Z " fill="#BB7249" transform="translate(641,273)"/>
<path d="M0 0 C3.93673644 1.31224548 6.22719294 2.91910327 9 6 C8.01 6.495 8.01 6.495 7 7 C7 6.34 7 5.68 7 5 C5.35 5 3.7 5 2 5 C1.34 3.35 0.68 1.7 0 0 Z " fill="#C27640" transform="translate(606,252)"/>
<path d="M0 0 C5.75 1.75 5.75 1.75 8 4 C7 5 7 5 4.4375 5.0625 C3.2309375 5.0315625 3.2309375 5.0315625 2 5 C1.34 3.35 0.68 1.7 0 0 Z " fill="#CE7B3C" transform="translate(540,215)"/>
<path d="M0 0 C0.66 0.99 1.32 1.98 2 3 C-2.1077065 4.58706842 -3.59232396 5.10191901 -8 4 C-5.36 2.68 -2.72 1.36 0 0 Z " fill="#CD8646" transform="translate(527,211)"/>
<path d="M0 0 C0.66 0.33 1.32 0.66 2 1 C0.8553125 1.8971875 0.8553125 1.8971875 -0.3125 2.8125 C-2.3483575 4.46959332 -4.1978279 6.10297674 -6 8 C-6 7.34 -6 6.68 -6 6 C-6.66 5.67 -7.32 5.34 -8 5 C-6.71475739 4.13619741 -5.42157581 3.28419631 -4.125 2.4375 C-3.04605469 1.72400391 -3.04605469 1.72400391 -1.9453125 0.99609375 C-1.30335938 0.66738281 -0.66140625 0.33867187 0 0 Z " fill="#687070" transform="translate(278,187)"/>
<path d="M0 0 C1.32 0 2.64 0 4 0 C4 0.66 4 1.32 4 2 C-1.625 5 -1.625 5 -5 5 C-5 4.34 -5 3.68 -5 3 C-3.35 2.67 -1.7 2.34 0 2 C0 1.34 0 0.68 0 0 Z " fill="#B2533A" transform="translate(538,861)"/>
<path d="M0 0 C0 0.99 0 1.98 0 3 C-3.13498292 4.85776765 -5.37471432 5.20140476 -9 5 C-2.87096774 0 -2.87096774 0 0 0 Z " fill="#AF5C40" transform="translate(620,698)"/>
<path d="M0 0 C-0.33 1.32 -0.66 2.64 -1 4 C-3.64 4.33 -6.28 4.66 -9 5 C-7.36885863 1.73771726 -3.62038485 0 0 0 Z " fill="#B0664A" transform="translate(633,691)"/>
<path d="M0 0 C0 0.99 0 1.98 0 3 C-3.13498292 4.85776765 -5.37471432 5.20140476 -9 5 C-2.87096774 0 -2.87096774 0 0 0 Z " fill="#B16347" transform="translate(739,634)"/>
<path d="M0 0 C-0.33 1.32 -0.66 2.64 -1 4 C-3.64 4.33 -6.28 4.66 -9 5 C-2.87096774 0 -2.87096774 0 0 0 Z " fill="#AF5F43" transform="translate(770,617)"/>
<path d="M0 0 C4.05281712 1.22527029 7.44360764 2.69880494 11 5 C8 6 8 6 5.95703125 5.22265625 C5.24933594 4.83980469 4.54164063 4.45695313 3.8125 4.0625 C3.09707031 3.68222656 2.38164062 3.30195312 1.64453125 2.91015625 C1.10183594 2.60980469 0.55914062 2.30945313 0 2 C0 1.34 0 0.68 0 0 Z " fill="#D49155" transform="translate(260,600)"/>
<path d="M0 0 C0.99 0.33 1.98 0.66 3 1 C3 4.63 3 8.26 3 12 C2.67 12 2.34 12 2 12 C2 9.03 2 6.06 2 3 C0.35 2.67 -1.3 2.34 -3 2 C-2.01 1.34 -1.02 0.68 0 0 Z " fill="#A06C63" transform="translate(858,569)"/>
<path d="M0 0 C1.27445454 0.42683632 2.54445882 0.86697202 3.8125 1.3125 C4.52019531 1.55613281 5.22789062 1.79976563 5.95703125 2.05078125 C8.14472373 3.06724258 9.40896718 4.20820594 11 6 C6.64477147 5.49357808 3.55760365 4.61588503 0 2 C0 1.34 0 0.68 0 0 Z " fill="#D5A875" transform="translate(272,433)"/>
<path d="M0 0 C0 0.99 0 1.98 0 3 C-2.31 3.33 -4.62 3.66 -7 4 C-7 3.01 -7 2.02 -7 1 C-2.25 0 -2.25 0 0 0 Z " fill="#262D27" transform="translate(851,337)"/>
<path d="M0 0 C0.66 0.33 1.32 0.66 2 1 C1.2575 1.6496875 1.2575 1.6496875 0.5 2.3125 C-1.33218192 3.99740483 -1.33218192 3.99740483 -1 7 C-3.475 6.01 -3.475 6.01 -6 5 C-4.00856305 2.01284458 -3.23356015 1.21258505 0 0 Z " fill="#D69661" transform="translate(419,270)"/>
<path d="M0 0 C2.97 1.65 5.94 3.3 9 5 C8.67 5.66 8.34 6.32 8 7 C7.01 7 6.02 7 5 7 C5 6.34 5 5.68 5 5 C2.525 4.01 2.525 4.01 0 3 C0 2.01 0 1.02 0 0 Z " fill="#CE854E" transform="translate(572,232)"/>
<path d="M0 0 C-2.52956528 3.0916909 -5.22454612 3.90931332 -9 5 C-9 4.01 -9 3.02 -9 2 C-5.86501708 0.14223235 -3.62528568 -0.20140476 0 0 Z " fill="#C3674C" transform="translate(737,755)"/>
<path d="M0 0 C1.67542976 0.28604898 3.34385343 0.61781233 5 1 C0.25 5 0.25 5 -2 5 C-1.125 1.125 -1.125 1.125 0 0 Z " fill="#BF5A3D" transform="translate(758,740)"/>
<path d="M0 0 C0.33 0 0.66 0 1 0 C1 6.6 1 13.2 1 20 C0.67 20 0.34 20 0 20 C0 13.4 0 6.8 0 0 Z " fill="#FDFBFB" transform="translate(0,556)"/>
<path d="M0 0 C0.66 0.33 1.32 0.66 2 1 C1 4 1 4 -0.875 5.1875 C-3 6 -3 6 -6 6 C-5.67 5.01 -5.34 4.02 -5 3 C-3.68 3 -2.36 3 -1 3 C-0.67 2.01 -0.34 1.02 0 0 Z " fill="#222C31" transform="translate(545,501)"/>
<path d="M0 0 C4.12751449 0.60698743 7.3321148 2.03810791 11 4 C11 4.33 11 4.66 11 5 C6.1948447 5.56531239 3.75696103 3.88324916 0 1 C0 0.67 0 0.34 0 0 Z " fill="#D3A271" transform="translate(375,490)"/>
<path d="M0 0 C3.91211733 1.15585285 6.8745041 2.35534962 10 5 C5.75776898 5.3636198 3.41831915 4.5393228 0 2 C0 1.34 0 0.68 0 0 Z " fill="#D5A674" transform="translate(344,472)"/>
<path d="M0 0 C0.33 0 0.66 0 1 0 C1 6.6 1 13.2 1 20 C0.67 20 0.34 20 0 20 C0 13.4 0 6.8 0 0 Z " fill="#FDF9FA" transform="translate(0,320)"/>
<path d="M0 0 C3.93673644 1.31224548 6.22719294 2.91910327 9 6 C2.35384615 4.52307692 2.35384615 4.52307692 0.5625 1.875 C0.376875 1.25625 0.19125 0.6375 0 0 Z " fill="#D08A59" transform="translate(615,258)"/>
<path d="M0 0 C0 0.99 0 1.98 0 3 C-3 5 -3 5 -5.6875 4.625 C-6.450625 4.41875 -7.21375 4.2125 -8 4 C-2.7826087 0 -2.7826087 0 0 0 Z " fill="#566062" transform="translate(288,183)"/>
<path d="M0 0 C3.73487777 0.4979837 5.81237635 0.87491756 9 3 C9 3.66 9 4.32 9 5 C5.22454612 3.90931332 2.52956528 3.0916909 0 0 Z " fill="#DF9C67" transform="translate(274,729)"/>
<path d="M0 0 C1.670625 0.061875 1.670625 0.061875 3.375 0.125 C0.43671403 2.62798434 -1.80402761 3.59430939 -5.625 4.125 C-5.625 0.12403124 -3.58125362 0.1234915 0 0 Z " fill="#DC8553" transform="translate(562.625,316.875)"/>
<path d="M0 0 C0 0.66 0 1.32 0 2 C-5.75 5 -5.75 5 -8 5 C-8 3 -8 3 -6.8125 1.375 C-4.44439338 -0.42149467 -2.90102749 -0.23521845 0 0 Z " fill="#D07641" transform="translate(629,281)"/>
<path d="M0 0 C1.093125 0.0825 2.18625 0.165 3.3125 0.25 C-2.0875 3.85 -2.0875 3.85 -4.6875 5.25 C-5.3475 4.92 -6.0075 4.59 -6.6875 4.25 C-4.79150483 0.68106792 -4.16790733 0.28256999 0 0 Z " fill="#62686A" transform="translate(351.6875,243.75)"/>
<path d="M0 0 C-0.1875 1.8125 -0.1875 1.8125 -1 4 C-3.5625 5.75 -3.5625 5.75 -6 7 C-5.39816251 4.97954558 -4.72693904 2.97888961 -4 1 C-2 0 -2 0 0 0 Z " fill="#DB7D33" transform="translate(502,225)"/>
<path d="M0 0 C3.77545388 1.09068668 6.47043472 1.9083091 9 5 C8.01 5.495 8.01 5.495 7 6 C7 5.34 7 4.68 7 4 C4.03 3.505 4.03 3.505 1 3 C0.67 2.01 0.34 1.02 0 0 Z " fill="#555E62" transform="translate(653,119)"/>
<path d="M0 0 C0.99 0.33 1.98 0.66 3 1 C3 1.66 3 2.32 3 3 C-1.455 3.495 -1.455 3.495 -6 4 C-4.03617993 2.49440461 -2.21736634 1.10868317 0 0 Z " fill="#546063" transform="translate(441,99)"/>
<path d="M0 0 C1.98 0 3.96 0 6 0 C6.33 1.32 6.66 2.64 7 4 C4.97954558 3.39816251 2.97888961 2.72693904 1 2 C0.67 1.34 0.34 0.68 0 0 Z " fill="#DD8F56" transform="translate(470,835)"/>
<path d="M0 0 C1.98 0 3.96 0 6 0 C6.33 1.32 6.66 2.64 7 4 C4.97954558 3.39816251 2.97888961 2.72693904 1 2 C0.67 1.34 0.34 0.68 0 0 Z " fill="#DE9561" transform="translate(263,723)"/>
<path d="M0 0 C3.45925163 1.2491742 6.14693203 2.67527795 9 5 C5.26512223 4.5020163 3.18762365 4.12508244 0 2 C0 1.34 0 0.68 0 0 Z " fill="#D19254" transform="translate(301,623)"/>
<path d="M0 0 C0.99 0 1.98 0 3 0 C3 0.66 3 1.32 3 2 C2.34 2 1.68 2 1 2 C1 2.66 1 3.32 1 4 C-0.65 4.33 -2.3 4.66 -4 5 C-4 4.01 -4 3.02 -4 2 C-3.01 1.67 -2.02 1.34 -1 1 C-0.67 0.67 -0.34 0.34 0 0 Z " fill="#424849" transform="translate(556,496)"/>
<path d="M0 0 C1.32 0 2.64 0 4 0 C4 0.66 4 1.32 4 2 C0.535 3.485 0.535 3.485 -3 5 C-3.33 4.01 -3.66 3.02 -4 2 C-2.68 2 -1.36 2 0 2 C0 1.34 0 0.68 0 0 Z " fill="#42484B" transform="translate(737,398)"/>
<path d="M0 0 C4.455 1.98 4.455 1.98 9 4 C8.01 4.66 7.02 5.32 6 6 C4.68 5.34 3.36 4.68 2 4 C2 3.34 2 2.68 2 2 C1.34 2 0.68 2 0 2 C0 1.34 0 0.68 0 0 Z " fill="#526066" transform="translate(478,370)"/>
<path d="M0 0 C2.31 0 4.62 0 7 0 C7.33 1.32 7.66 2.64 8 4 C2.25 2.25 2.25 2.25 0 0 Z " fill="#D88847" transform="translate(479,309)"/>
<path d="M0 0 C0.33 0.66 0.66 1.32 1 2 C1.99 2.33 2.98 2.66 4 3 C4 3.99 4 4.98 4 6 C3.01 6 2.02 6 1 6 C1 5.34 1 4.68 1 4 C0.34 4 -0.32 4 -1 4 C-0.67 2.68 -0.34 1.36 0 0 Z " fill="#576066" transform="translate(326,286)"/>
<path d="M0 0 C-3.42346555 3.14958831 -6.44262737 3.56179109 -11 4 C-10.67 3.34 -10.34 2.68 -10 2 C-8.68 2 -7.36 2 -6 2 C-6 1.34 -6 0.68 -6 0 C-3 -1 -3 -1 0 0 Z " fill="#DD741D" transform="translate(431,268)"/>
<path d="M0 0 C-1 2 -1 2 -4.0625 3.125 C-5.031875 3.41375 -6.00125 3.7025 -7 4 C-7 3.01 -7 2.02 -7 1 C-3.375 -1.125 -3.375 -1.125 0 0 Z " fill="#57626A" transform="translate(485,173)"/>
<path d="M0 0 C-0.33 0.99 -0.66 1.98 -1 3 C-1.99 3 -2.98 3 -4 3 C-4 3.66 -4 4.32 -4 5 C-5.65 5 -7.3 5 -9 5 C-2.87096774 0 -2.87096774 0 0 0 Z " fill="#666D6D" transform="translate(376,135)"/>
<path d="M0 0 C4.75 0.75 4.75 0.75 7 3 C4.69 3.33 2.38 3.66 0 4 C0 2.68 0 1.36 0 0 Z " fill="#40474D" transform="translate(676,132)"/>
<path d="M0 0 C-1.75 3.875 -1.75 3.875 -4 5 C-6.125 4.0625 -6.125 4.0625 -8 3 C-2.25 0 -2.25 0 0 0 Z " fill="#5B6462" transform="translate(395,125)"/>
<path d="M0 0 C1.65 0.33 3.3 0.66 5 1 C2.82575883 3.50037734 1.26954202 4.43628586 -2 5 C-1.34 3.35 -0.68 1.7 0 0 Z " fill="#C0634A" transform="translate(625,812)"/>
<path d="M0 0 C-2.17424117 2.50037734 -3.73045798 3.43628586 -7 4 C-7 3.01 -7 2.02 -7 1 C-4.53721199 -0.231394 -2.7204945 -0.07159196 0 0 Z " fill="#CA7352" transform="translate(772,736)"/>
<path d="M0 0 C2.64 0.33 5.28 0.66 8 1 C8 1.99 8 2.98 8 4 C4.64404172 3.40072174 2.62198774 2.15377564 0 0 Z " fill="#E19D64" transform="translate(248,715)"/>
<path d="M0 0 C1.65 0.33 3.3 0.66 5 1 C0.25 5 0.25 5 -2 5 C-2 4.01 -2 3.02 -2 2 C-1.34 2 -0.68 2 0 2 C0 1.34 0 0.68 0 0 Z " fill="#C2664C" transform="translate(823,705)"/>
<path d="M0 0 C3.45925163 1.2491742 6.14693203 2.67527795 9 5 C5.65626525 4.44271087 2.96687001 3.64826111 0 2 C0 1.34 0 0.68 0 0 Z " fill="#D59355" transform="translate(271,606)"/>
<path d="M0 0 C-1.65 1.32 -3.3 2.64 -5 4 C-6.32 3.34 -7.64 2.68 -9 2 C-5.86501708 0.14223235 -3.62528568 -0.20140476 0 0 Z " fill="#414644" transform="translate(599,475)"/>
<path d="M0 0 C0.66 0.33 1.32 0.66 2 1 C0.68 2.32 -0.64 3.64 -2 5 C-3.32 4.34 -4.64 3.68 -6 3 C-4.03533587 1.93224776 -2.03144641 0.93446535 0 0 Z " fill="#495758" transform="translate(677,318)"/>
<path d="M0 0 C3.45925163 1.2491742 6.14693203 2.67527795 9 5 C5.26512223 4.5020163 3.18762365 4.12508244 0 2 C0 1.34 0 0.68 0 0 Z " fill="#C07A47" transform="translate(581,238)"/>
<path d="M0 0 C1.98 0 3.96 0 6 0 C6.66 1.65 7.32 3.3 8 5 C4.62496331 3.8141763 2.35277269 2.72426311 0 0 Z " fill="#4F5E66" transform="translate(680,232)"/>
<path d="M0 0 C-6.75 4 -6.75 4 -9 4 C-8 1 -8 1 -6.1875 -0.25 C-3.66056586 -1.11637742 -2.47778006 -0.88492145 0 0 Z " fill="#5E676B" transform="translate(501,165)"/>
<path d="M0 0 C5.75 1.75 5.75 1.75 8 4 C6.35 4.33 4.7 4.66 3 5 C3 4.34 3 3.68 3 3 C2.01 2.67 1.02 2.34 0 2 C0 1.34 0 0.68 0 0 Z " fill="#4C535B" transform="translate(584,81)"/>
<path d="M0 0 C0.33 0 0.66 0 1 0 C1 5.28 1 10.56 1 16 C0.67 16 0.34 16 0 16 C0 10.72 0 5.44 0 0 Z " fill="#FCFAFA" transform="translate(0,688)"/>
<path d="M0 0 C0.33 0 0.66 0 1 0 C1 5.28 1 10.56 1 16 C0.67 16 0.34 16 0 16 C0 10.72 0 5.44 0 0 Z " fill="#FEF9FA" transform="translate(0,264)"/>
<path d="M0 0 C0.33 0 0.66 0 1 0 C1 5.28 1 10.56 1 16 C0.67 16 0.34 16 0 16 C0 10.72 0 5.44 0 0 Z " fill="#FAF9FC" transform="translate(0,32)"/>
<path d="M0 0 C3.96 0 7.92 0 12 0 C12 0.33 12 0.66 12 1 C8.04 1 4.08 1 0 1 C0 0.67 0 0.34 0 0 Z " fill="#FEFFF8" transform="translate(284,1023)"/>
<path d="M0 0 C0.33 0 0.66 0 1 0 C1 3.96 1 7.92 1 12 C0.67 12 0.34 12 0 12 C0 8.04 0 4.08 0 0 Z " fill="#FCF9FA" transform="translate(0,752)"/>
<path d="M0 0 C2.64 0 5.28 0 8 0 C8 0.33 8 0.66 8 1 C5.36 1 2.72 1 0 1 C0 0.67 0 0.34 0 0 Z " fill="#F8FDFC" transform="translate(1008,1023)"/>
<path d="M0 0 C0.33 0 0.66 0 1 0 C1 2.64 1 5.28 1 8 C0.67 8 0.34 8 0 8 C0 5.36 0 2.72 0 0 Z " fill="#FDFBFC" transform="translate(0,924)"/>
<path d="M0 0 C0.33 0 0.66 0 1 0 C1 2.64 1 5.28 1 8 C0.67 8 0.34 8 0 8 C0 5.36 0 2.72 0 0 Z " fill="#FCFAFA" transform="translate(0,800)"/>
<path d="M0 0 C0.33 0 0.66 0 1 0 C1 2.64 1 5.28 1 8 C0.67 8 0.34 8 0 8 C0 5.36 0 2.72 0 0 Z " fill="#FEF9FA" transform="translate(0,720)"/>
<path d="M0 0 C0.33 0 0.66 0 1 0 C1 2.64 1 5.28 1 8 C0.67 8 0.34 8 0 8 C0 5.36 0 2.72 0 0 Z " fill="#FEF9FA" transform="translate(0,512)"/>
<path d="M0 0 C0.33 0 0.66 0 1 0 C1 2.64 1 5.28 1 8 C0.67 8 0.34 8 0 8 C0 5.36 0 2.72 0 0 Z " fill="#FCFAFA" transform="translate(0,448)"/>
<path d="M0 0 C0.33 0 0.66 0 1 0 C1 2.64 1 5.28 1 8 C0.67 8 0.34 8 0 8 C0 5.36 0 2.72 0 0 Z " fill="#FEF9FA" transform="translate(0,400)"/>
<path d="M0 0 C0.33 0 0.66 0 1 0 C1 2.64 1 5.28 1 8 C0.67 8 0.34 8 0 8 C0 5.36 0 2.72 0 0 Z " fill="#FCFAFA" transform="translate(0,304)"/>
<path d="M0 0 C1 4 1 4 1 4 Z " fill="#FDFBFC" transform="translate(0,912)"/>
<path d="M0 0 C1 4 1 4 1 4 Z " fill="#FDFBF9" transform="translate(0,792)"/>
<path d="M0 0 C1 4 1 4 1 4 Z " fill="#FCFAFA" transform="translate(0,732)"/>
<path d="M0 0 C1 4 1 4 1 4 Z " fill="#FCFAFA" transform="translate(0,244)"/>
<path d="M0 0 C1 4 1 4 1 4 Z " fill="#FCFAFA" transform="translate(0,172)"/>
<path d="M0 0 C1 4 1 4 1 4 Z " fill="#FCFAFA" transform="translate(0,160)"/>
<path d="M0 0 C1 4 1 4 1 4 Z " fill="#FEF9FA" transform="translate(0,92)"/>
<path d="M0 0 C1 4 1 4 1 4 Z " fill="#F4FAFF" transform="translate(0,0)"/>
<path d="" fill="#FCFCF9" transform="translate(0,0)"/>
<path d="" fill="#F6FCFF" transform="translate(0,0)"/>
<path d="" fill="#F8FDFC" transform="translate(0,0)"/>
<path d="" fill="#F5FEFF" transform="translate(0,0)"/>
<path d="" fill="#F5FEFF" transform="translate(0,0)"/>
<path d="" fill="#F7FCFC" transform="translate(0,0)"/>
<path d="" fill="#F7FDFF" transform="translate(0,0)"/>
</svg>
